<?xml version="1.0" encoding="utf-8"?>
<!-- Generator: Adobe Illustrator 25.2.0, SVG Export Plug-In . SVG Version: 6.00 Build 0)  -->
<svg version="1.1" id="Layer_1" xmlns="http://www.w3.org/2000/svg" xmlns:xlink="http://www.w3.org/1999/xlink" x="0px" y="0px"
	 viewBox="0 0 429.6 527.9" style="enable-background:new 0 0 429.6 527.9;" xml:space="preserve">
<style type="text/css">
	.st0{fill:#000D24;}
	.st1{fill:#92A1B7;}
	.st2{fill:url(#SVGID_1_);}
	.st3{fill:#FCFCFD;}
	.st4{stroke:#000000;stroke-width:0.7;stroke-linecap:round;stroke-linejoin:round;stroke-miterlimit:10;}
	.st5{fill:#FF5400;}
</style>
<g>
	<path class="st0" d="M101,303.6c0-1.4,0.2-2.4,0.6-2.9s1.2-0.8,2.4-0.8c0.4,0,1.1,0,1.9,0.1c0.8,0,1.7,0.1,2.6,0.1s1.6,0.1,2.3,0.1
		c0.7,0,1.1,0.1,1.2,0.1c2.1,0,3.8-0.1,5.1-0.3c1.3-0.2,2.3-0.3,3.1-0.3c0.7,0,1.3,0.2,1.7,0.6c0.4,0.4,0.7,1,0.8,1.8
		c0.2,0.8,0.3,1.9,0.3,3.2s0,2.8,0,4.6c0,3.3-0.3,6-0.8,8.1s-1.4,3.8-2.5,5.1c-1.2,1.3-2.7,2.3-4.5,2.9c-1.8,0.7-4.1,1.2-6.7,1.5
		c-0.4,0-0.7,0.1-1,0.1s-0.6,0-0.9,0c-1.3,0-2.3-0.3-3-0.8s-1.2-1.3-1.5-2.3s-0.5-2.2-0.5-3.6s0-3.1,0-4.9c0-2.1-0.1-4.2-0.3-6.3
		C101.1,307.9,101,305.8,101,303.6z M106.2,306.5c0,1.1,0,2.1,0.1,3s0.1,1.7,0.1,2.5c0,0.1,0,0.5,0,1.1s0,1.4,0,2.3s0,1.7,0,2.6
		c0,0.8,0,1.5,0,2s0.4,0.7,1.2,0.7c1.5,0,2.8-0.6,3.9-1.7c1.1-1.2,1.6-3,1.6-5.5c0-1.9,0-3.4,0-4.4s0-1.9,0-2.7L106.2,306.5z
		 M127.8,337.5c0.6,0,1.3,0,2.3,0s2,0,3.1,0s2.4,0,3.7-0.1c1.3,0,2.6-0.1,3.9-0.2c1.3-0.1,2.1-0.3,2.5-0.6s0.6-0.7,0.8-1.2
		c0.1-0.4,0.2-0.9,0.2-1.5s0.1-1,0.1-1.4c0-1.1-1-1.6-3.2-1.7c-2.2-0.1-5.2-0.1-9.2-0.1c-0.6,0-1.1-0.2-1.4-0.7s-0.4-1-0.3-1.7
		c0,0,0.1-0.2,0.2-0.5s0.4-0.6,1-0.9c0.5-0.3,1.3-0.6,2.4-0.8s2.6-0.4,4.6-0.4c1.6,0,3.4,0.1,5.3,0.2c1.9,0.1,3.7,0.4,5.6,0.8
		c0.7,0.1,1.3,0.5,1.9,1s0.9,1.1,1.3,1.9c0.4,0.7,0.6,1.5,0.8,2.4s0.3,1.8,0.3,2.7c0,1.6-0.1,2.8-0.4,3.7s-0.9,1.6-1.8,2.1
		c-1.4,0.8-3.4,1.3-5.9,1.6s-5.3,0.4-8.4,0.4c-0.8,0-1.6,0-2.4,0s-1.5,0-2.2-0.1c0,2.3,0.1,4.2,0.3,5.6s0.7,2.2,1.5,2.4
		c0.6,0.2,1.3,0.3,2.1,0.3c0.9,0,2.1-0.1,3.6-0.3s3-0.4,4.5-0.7c1.6-0.3,3.1-0.5,4.5-0.7c1.5-0.2,2.7-0.3,3.7-0.3
		c1.3,0,2.4,0.3,3.2,0.9s1.2,1.8,1.2,3.5c0,1-0.4,1.9-1.3,2.8c-0.9,0.8-2,1.5-3.5,2.1s-3.1,1.1-5,1.4s-3.8,0.5-5.7,0.5
		c-3.1,0-5.5-0.4-7.4-1.1s-3.3-1.9-4.3-3.4c-0.7-1.2-1.2-2.3-1.5-3.5c-0.3-1.1-0.4-2.8-0.4-5c0-2,0.2-3.7,0.5-5.2
		c-0.7-0.2-1.2-0.6-1.6-1s-0.6-1-0.6-1.7C126.4,338,126.8,337.5,127.8,337.5z M155.2,302c0.7,0,1.5,0,2.3,0.1s1.6,0.3,2.3,0.5
		s1.3,0.5,1.7,0.8c0.5,0.3,0.7,0.7,0.7,1.2c0,0.7-0.4,1.3-1.3,1.7s-2,0.8-3.2,1c-1.3,0.2-2.7,0.4-4.1,0.4c-1.5,0.1-2.8,0.1-3.9,0.1
		c0,0.3,0,0.6,0,0.9s0,0.6,0.1,1c0,1.3,0,2.7-0.3,4.3c-0.2,1.5-0.6,2.9-1.2,4.2s-1.3,2.4-2.1,3.2c-0.9,0.9-1.9,1.3-3.1,1.3
		c-1,0-1.7-0.3-2.3-0.8s-1-1.2-1.2-2s-0.4-1.7-0.5-2.6s-0.1-1.8-0.2-2.7c-0.1-1.5-0.2-2.7-0.4-3.7s-0.4-2-0.7-3s-0.6-2-1-3.1
		s-0.8-2.5-1.4-4.1c-0.2-0.7-0.6-1.4-1-2.1s-0.8-1.4-1.2-2c-0.4-0.7-0.7-1.4-1.1-2.1c-0.3-0.7-0.5-1.4-0.5-2.1
		c0-1.5,0.5-2.5,1.6-3.1s2.3-0.9,3.8-0.9c1,0,2.2,0.2,3.5,0.5c1.3,0.4,2.4,0.8,3.3,1.3c0.5,0.3,0.9,0.7,1.2,1.1s0.6,0.8,0.8,1.3
		s0.4,0.9,0.6,1.4s0.4,0.9,0.7,1.3c0.7,1.1,1.2,2.2,1.5,3.3s0.6,2.4,0.8,3.9c1.1-0.2,2.2-0.4,3.3-0.5
		C153.7,302.2,154.6,302.1,155.2,302z"/>
	<path class="st0" d="M175.2,340.9c1.2,0.2,2,0.9,2.6,1.9s0.8,2.1,0.8,3.3c0,1.3-0.4,2.5-1.1,3.7c-0.7,1.1-1.8,1.7-3.2,1.7
		c-1.1,0-2.1-0.2-3-0.6s-1.6-0.9-2.3-1.5c-0.6-0.6-1.1-1.2-1.4-1.9s-0.5-1.3-0.5-1.9c0-0.5,0.1-1,0.4-1.6s0.7-1.1,1.2-1.6
		s1.2-0.9,2-1.2s1.8-0.5,2.9-0.5c0.3,0,0.6,0,0.9,0S175,340.9,175.2,340.9z"/>
	<path class="st0" d="M186.2,303.6c0-1.4,0.2-2.4,0.6-2.9s1.2-0.8,2.4-0.8c0.4,0,1.1,0,1.9,0.1c0.8,0,1.7,0.1,2.6,0.1
		s1.6,0.1,2.3,0.1s1.1,0.1,1.2,0.1c2.1,0,3.8-0.1,5.1-0.3c1.3-0.2,2.3-0.3,3.1-0.3c0.7,0,1.3,0.2,1.7,0.6s0.7,1,0.8,1.8
		c0.2,0.8,0.3,1.9,0.3,3.2s0,2.8,0,4.6c0,3.3-0.3,6-0.8,8.1s-1.4,3.8-2.5,5.1c-1.2,1.3-2.7,2.3-4.5,2.9c-1.8,0.7-4.1,1.2-6.7,1.5
		c-0.4,0-0.7,0.1-1,0.1s-0.6,0-0.9,0c-1.3,0-2.3-0.3-3-0.8s-1.2-1.3-1.5-2.3s-0.5-2.2-0.5-3.6s0-3.1,0-4.9c0-2.1-0.1-4.2-0.3-6.3
		C186.3,307.9,186.2,305.8,186.2,303.6z M191.4,306.5c0,1.1,0,2.1,0.1,3s0.1,1.7,0.1,2.5c0,0.1,0,0.5,0,1.1s0,1.4,0,2.3s0,1.7,0,2.6
		c0,0.8,0,1.5,0,2s0.4,0.7,1.2,0.7c1.5,0,2.8-0.6,3.9-1.7c1.1-1.2,1.6-3,1.6-5.5c0-1.9,0-3.4,0-4.4s0-1.9,0-2.7L191.4,306.5z
		 M193,337.3c0.2-1.3,0.6-2.1,1.2-2.4c0.6-0.4,1-0.5,1.4-0.5s0.7,0.1,1,0.4c0.3,0.2,0.5,0.8,0.5,1.6c0,1.6,0,3,0,4.3
		s0.1,2.4,0.2,3.3c0.1,0.9,0.3,1.7,0.5,2.3s0.6,0.9,1.1,1.1c0.6,0.2,1.3,0.3,2.1,0.3c0.9,0,1.9-0.1,3-0.3s2.2-0.4,3.3-0.7
		c1.1-0.3,2.2-0.5,3.3-0.7s2.1-0.3,3.1-0.3c1.3,0,2.4,0.3,3.2,0.9s1.2,1.8,1.2,3.5c0,2.9-1,5-3,6.3s-4.9,1.9-8.9,1.9
		c-3.1,0-5.5-0.4-7.4-1.1s-3.3-1.9-4.3-3.4c-0.7-1.2-1.2-2.6-1.5-4.2s-0.4-3.5-0.4-5.7c0-1.3,0-2.5,0.1-3.6
		C192.8,339.1,192.9,338.1,193,337.3z M241.3,335c1.4,0.1,2.6,0.5,3.6,1.2s1.5,1.6,1.5,2.7c0,0.9-0.4,1.6-1.1,2.1s-1.6,0.9-2.6,1.2
		s-2.1,0.5-3.3,0.6s-2.2,0.2-3.1,0.2c-0.4,0-1.3,0-2.5-0.1c-1.3-0.1-2.7-0.2-4.4-0.4c-1.6-0.2-3.4-0.4-5.1-0.7
		c-1.8-0.3-3.4-0.6-4.9-1.1s-2.7-1-3.7-1.6s-1.5-1.3-1.5-2.1c0-0.6,0.2-1.1,0.7-1.4c0.4-0.4,1-0.6,1.7-0.8s1.4-0.3,2.2-0.4
		s1.6-0.1,2.3-0.1c1.2,0,2.3,0,3.3,0.1s2,0.2,3,0.4c1,0.1,2,0.3,3,0.4s2.1,0.1,3.3,0.1c1.3,0,2.5-0.1,3.8-0.2
		C238.8,335.1,240.1,335,241.3,335z M240.4,302c0.7,0,1.5,0,2.3,0.1s1.6,0.3,2.3,0.5s1.3,0.5,1.7,0.8c0.5,0.3,0.7,0.7,0.7,1.2
		c0,0.7-0.4,1.3-1.3,1.7s-2,0.8-3.2,1c-1.3,0.2-2.7,0.4-4.1,0.4c-1.5,0.1-2.8,0.1-3.9,0.1c0,0.3,0,0.6,0,0.9s0,0.6,0.1,1
		c0,1.3,0,2.7-0.3,4.3c-0.2,1.5-0.6,2.9-1.2,4.2s-1.3,2.4-2.1,3.2c-0.9,0.9-1.9,1.3-3.1,1.3c-1,0-1.7-0.3-2.3-0.8s-1-1.2-1.2-2
		s-0.4-1.7-0.5-2.6s-0.1-1.8-0.2-2.7c-0.1-1.5-0.2-2.7-0.4-3.7s-0.4-2-0.7-3s-0.6-2-1-3.1s-0.8-2.5-1.4-4.1c-0.2-0.7-0.6-1.4-1-2.1
		s-0.8-1.4-1.2-2c-0.4-0.7-0.7-1.4-1.1-2.1c-0.3-0.7-0.5-1.4-0.5-2.1c0-1.5,0.5-2.5,1.6-3.1s2.3-0.9,3.8-0.9c1,0,2.2,0.2,3.5,0.5
		c1.3,0.4,2.4,0.8,3.3,1.3c0.5,0.3,0.9,0.7,1.2,1.1s0.6,0.8,0.8,1.3s0.4,0.9,0.6,1.4s0.4,0.9,0.7,1.3c0.7,1.1,1.2,2.2,1.5,3.3
		s0.6,2.4,0.8,3.9c1.1-0.2,2.2-0.4,3.3-0.5C238.8,302.2,239.7,302.1,240.4,302z M236.5,325.9c0.9,0.1,1.6,0.4,2.3,1s1,1.2,1,2.1
		c0,0.7-0.2,1.2-0.7,1.6s-1,0.7-1.7,1c-0.7,0.2-1.3,0.4-2.1,0.5c-0.7,0.1-1.4,0.1-1.9,0.1c-0.3,0-0.8,0-1.6-0.1
		c-0.8,0-1.7-0.1-2.7-0.3c-1-0.1-2.1-0.3-3.2-0.5s-2.1-0.5-3.1-0.8c-0.9-0.3-1.7-0.8-2.3-1.2c-0.6-0.5-0.9-1-0.9-1.7
		c0-0.4,0.1-0.8,0.4-1.1s0.6-0.5,1.1-0.7c0.4-0.2,0.9-0.3,1.4-0.3s1-0.1,1.4-0.1c1.5,0,2.8,0.1,4,0.4s2.5,0.4,3.9,0.4
		c0.8,0,1.6,0,2.4-0.1C234.9,325.9,235.7,325.9,236.5,325.9z M233.1,345.6c1.6,0.3,2.7,1.2,3.5,2.5s1.1,2.7,1.1,4.3
		c0,0.9-0.1,1.7-0.4,2.6c-0.2,0.9-0.6,1.6-1.1,2.3s-1.1,1.2-1.8,1.6s-1.6,0.6-2.5,0.6c-1.5,0-2.8-0.3-4-0.8s-2.2-1.2-3.1-2
		c-0.8-0.8-1.5-1.6-1.9-2.5s-0.7-1.7-0.7-2.4c0-0.6,0.2-1.3,0.5-2.1s0.9-1.4,1.6-2.1c0.7-0.6,1.6-1.2,2.7-1.6
		c1.1-0.4,2.4-0.7,3.8-0.7c0.4,0,0.8,0,1.1,0C232.4,345.5,232.8,345.5,233.1,345.6z M229.8,350h-0.5c-0.8,0-1.3,0.2-1.6,0.5
		c-0.3,0.4-0.5,0.7-0.5,1.1s0.2,0.8,0.6,1.3s1,0.7,1.7,0.7c0.5,0,0.8-0.2,1.1-0.5c0.2-0.4,0.3-0.8,0.3-1.3
		C230.9,350.9,230.5,350.3,229.8,350z"/>
	<path class="st0" d="M260.4,340.9c1.2,0.2,2,0.9,2.6,1.9s0.8,2.1,0.8,3.3c0,1.3-0.4,2.5-1.1,3.7c-0.7,1.1-1.8,1.7-3.2,1.7
		c-1.1,0-2.1-0.2-3-0.6s-1.6-0.9-2.3-1.5c-0.6-0.6-1.1-1.2-1.4-1.9s-0.5-1.3-0.5-1.9c0-0.5,0.1-1,0.4-1.6s0.7-1.1,1.2-1.6
		s1.2-0.9,2-1.2c0.8-0.3,1.8-0.5,2.9-0.5c0.3,0,0.6,0,0.9,0S260.1,340.9,260.4,340.9z"/>
	<path class="st0" d="M284.6,313.7h1.2c-0.1-1.6-0.3-3-0.4-4.2c-0.1-1.3-0.2-2.2-0.3-2.9c-0.1-0.5-0.1-1-0.1-1.4s0-0.8,0-1.2
		c0.1-1.8,0.6-3.1,1.4-3.7c0.8-0.7,2.1-0.9,3.8-0.8c1.7,0.1,3.1,0.7,4,1.8c0.9,1,1.6,2.4,2,3.9c0.4,1.6,0.6,3.3,0.6,5.2
		s0,3.7-0.1,5.4c-0.1,2.9-0.4,5.5-0.8,7.9c-0.5,2.4-1.2,4.1-2.1,5.2c-1,1.2-2.2,2.3-3.6,3.2s-2.9,1.6-4.5,2.2s-3.2,1-4.7,1.3
		c-1.6,0.3-3,0.4-4.2,0.3c-1.1,0-1.9-0.3-2.5-0.7s-1-1.1-1.3-1.9s-0.5-1.8-0.5-2.9c-0.1-1.1-0.2-2.4-0.3-3.9c0-1-0.2-2.5-0.4-4.5
		c-0.2-2.1-0.4-4.2-0.6-6.4s-0.4-4.2-0.5-6s-0.2-2.9-0.2-3.3c0-0.8,0.3-1.4,0.7-1.7c0.4-0.3,1.2-0.5,2.2-0.4c0.5,0,0.9,0.2,1.3,0.5
		s0.6,0.8,0.7,1.6c0.2,1.6,0.5,3.1,0.7,4.8c0.2,1.6,0.4,3.3,0.6,5c1.3-0.5,2.8-1,4.3-1.3C282.4,314,283.7,313.8,284.6,313.7z
		 M277.8,329.2c0,0.2,0.2,0.3,0.6,0.3c0.3,0,0.9-0.2,1.8-0.5s1.8-0.7,2.7-1.2c0.9-0.5,1.7-1.1,2.4-1.8c0.7-0.7,1.1-1.5,1.1-2.5
		c0-0.4,0-1,0-1.8s-0.1-1.8-0.2-2.8c-1.1,0.2-2.2,0.4-3.4,0.5c-1.1,0.1-2.1,0.2-2.9,0.3c-1.1,0.1-2,0.1-2.8,0c0.1,1.7,0.3,3.4,0.4,5
		C277.5,326.2,277.7,327.7,277.8,329.2z M311.8,308.9c0.8,0,1.6,0.1,2.5,0.2c-0.2-0.9-0.5-1.8-0.7-2.7s-0.5-2-0.8-3.1
		c-0.2-0.8-0.6-1.6-1-2.4s-0.8-1.6-1.2-2.4s-0.7-1.6-1.1-2.4c-0.3-0.8-0.5-1.7-0.5-2.5c0-1.7,0.5-2.9,1.6-3.6s2.3-1.1,3.7-1.1
		c1,0,2.2,0.2,3.5,0.6s2.4,1,3.3,1.6c0.5,0.4,0.9,0.8,1.2,1.3c0.3,0.5,0.5,1,0.7,1.5s0.4,1.1,0.6,1.6c0.2,0.6,0.4,1.1,0.7,1.6
		c0.5,1.1,1,2.1,1.3,3.2c0.3,1,0.6,2.2,0.8,3.5s0.4,2.7,0.4,4.3c0.1,1.6,0.1,3.5,0.1,5.7c0,5.2-0.5,9.3-1.6,12.3
		c-1,3-2.8,4.5-5.1,4.5c-1,0-1.7-0.3-2.3-0.8c-0.6-0.5-1-1.2-1.2-2.1c-0.2-0.8-0.4-1.8-0.5-2.8s-0.1-2-0.2-3.1
		c-0.1-1.5-0.2-2.8-0.3-4s-0.3-2.5-0.5-3.7c-1.4,0.3-3,0.5-4.8,0.6s-3.3,0.1-4.7,0.1c-1.9,0-3.6-0.1-4.9-0.4s-2-0.7-2-1.2
		c0-0.6,0.5-1.2,1.5-1.7s2.2-0.9,3.5-1.3c1.4-0.3,2.8-0.6,4.2-0.8C309.8,309.2,310.9,309,311.8,308.9z M318.3,335.3
		c0.9,0.2,1.7,0.7,2.4,1.3c0.7,0.6,1.3,1.4,1.7,2.3c0.5,0.9,0.8,1.9,1.1,3s0.4,2.2,0.4,3.3c0,1.3-0.2,2.6-0.5,3.8s-0.8,2.4-1.3,3.3
		c-0.6,1-1.3,1.8-2.2,2.4c-0.9,0.6-1.9,0.9-3.1,0.9c-1.8,0-3.4-0.4-4.9-1.2s-2.7-1.7-3.7-2.8s-1.8-2.3-2.3-3.6s-0.8-2.5-0.8-3.6
		c0-0.9,0.2-1.9,0.6-3s1.1-2.1,1.9-3c0.9-0.9,2-1.7,3.3-2.3s2.9-0.9,4.7-0.9c0.4,0,0.9,0,1.4,0.1C317.5,335.2,318,335.2,318.3,335.3
		z M314.3,341.7h-0.7c-1,0-1.6,0.3-2,0.8s-0.5,1-0.5,1.5s0.2,1.2,0.7,1.9s1.2,1.1,2.1,1.1c0.5,0,0.9-0.3,1.2-0.8
		c0.3-0.6,0.4-1.2,0.4-1.9C315.6,343.1,315.1,342.2,314.3,341.7z"/>
</g>
<g>
	<path class="st1" d="M162.5,403.1h-9.3V395h9.3V403.1z M157.4,411.8h11.2v1.8h-13.4v-5.3h10.6v-1.7h-10.6v-1.7H168v5.1h-10.6V411.8
		L157.4,411.8z M160.3,396.9h-4.8v4.5h4.8V396.9z M170.8,398.1v1.9H168v4.1h-2.3v-10h2.3v4.1L170.8,398.1L170.8,398.1z"/>
	<path class="st1" d="M182.7,403.5h-9.3v-8.2h9.3V403.5z M176.8,411.5c1.1-0.1,2.4-0.2,3.6-0.6l0.4,1.8c-1.8,0.6-3.5,0.7-5.1,0.7h-1
		v-7.6h2.2L176.8,411.5L176.8,411.5z M180.5,397.1h-4.8v4.6h4.8V397.1z M186.2,406h3.9v1.7h-10V406h3.9v-1.6h2.2L186.2,406
		L186.2,406z M188.8,411.1c0,1.7-1.6,2.8-3.7,2.8c-2.2,0-3.8-1.1-3.8-2.8s1.6-2.8,3.8-2.8C187.2,408.3,188.8,409.4,188.8,411.1z
		 M186.8,411.1c0-0.8-0.7-1.2-1.7-1.2s-1.8,0.4-1.8,1.2s0.7,1.2,1.8,1.2C186.1,412.3,186.8,411.9,186.8,411.1z M191.1,398.4v1.9
		h-2.8v3.8H186v-10h2.3v4.3L191.1,398.4L191.1,398.4z"/>
	<path class="st1" d="M210.9,404.3v1.8h-18v-1.8H210.9z M194.9,398.7c0-2.5,2.8-4,7.1-4s7.1,1.5,7.1,4s-2.8,4-7.1,4
		S194.9,401.2,194.9,398.7z M197.5,411.7h11.4v1.8h-13.7v-5.8h2.3V411.7L197.5,411.7z M197.2,398.7c0,1.4,1.8,2.2,4.8,2.2
		c2.9,0,4.7-0.8,4.7-2.2s-1.8-2.2-4.7-2.2C199,396.5,197.2,397.3,197.2,398.7z"/>
	<path class="st1" d="M229.4,404.7h-9.2v-9.4h2.2v2.9h4.7v-3h2.2v3.7h4.1V394h2.3v12h-2.3v-5.2h-4.1L229.4,404.7L229.4,404.7z
		 M227.2,400h-4.7v2.9h4.7V400z M235.9,410.1c0,2.4-2.6,3.8-6.7,3.8s-6.7-1.4-6.7-3.8s2.6-3.8,6.7-3.8
		C233.4,406.4,235.9,407.8,235.9,410.1z M233.6,410.1c0-1.3-1.6-2-4.4-2s-4.4,0.7-4.4,2s1.6,2,4.4,2S233.6,411.4,233.6,410.1z"/>
	<path class="st1" d="M256.1,394v19.9h-2.3v-10.7h-3.9c-0.3,3.9-2.3,6.2-5,6.2c-2.9,0-5-2.7-5-7s2.1-7,5-7c2.7,0,4.7,2.3,5,5.9h3.9
		v-7.4L256.1,394L256.1,394z M247.8,402.5c0-3.1-1.2-5-2.9-5s-2.9,1.9-2.9,5s1.2,5,2.9,5C246.7,407.5,247.8,405.6,247.8,402.5z"/>
	<path class="st1" d="M263.3,407.3c3.1,0,5.9-0.2,9-0.7l0.2,1.8c-3.4,0.6-6.4,0.7-9.9,0.7h-1.7v-7.9h6.9v-3.7h-7v-1.8h9.3v7.4h-6.9
		v4.2H263.3z M276.2,394v20h-2.3v-20H276.2z"/>
</g>
<image style="overflow:visible;enable-background:new    ;" width="1304" height="1300" xlink:href="647F2325.png"  transform="matrix(0.1531 0 0 0.1531 122.5281 55.566)">
</image>
<g>
	
		<linearGradient id="SVGID_1_" gradientUnits="userSpaceOnUse" x1="131.8829" y1="435.528" x2="300.9709" y2="435.528" gradientTransform="matrix(1 0 0 1 0 -287.6533)">
		<stop  offset="0" style="stop-color:#FBAC0D"/>
		<stop  offset="1" style="stop-color:#FCCE2F"/>
	</linearGradient>
	<path class="st2" d="M278.6,231.7H154.3c-12.4,0-22.4-10.1-22.4-22.4V86.4c0-12.4,10.1-22.4,22.4-22.4h124.3
		c12.4,0,22.4,10.1,22.4,22.4v122.9C301,221.6,290.9,231.7,278.6,231.7z"/>
	<g>
		<g>
			<path class="st3" d="M253.2,132.4c-8.1-9.2-15.2,1.2-19.8,10.4c-1.4-9.9-5.4-19.3-11.7-27.3c-7.8-9.7-20-18.6-32.8-12.9
				c-12.6,5.6-17.7,19.6-16.5,32.6c1.5,15.8,9.2,31.4,17,44.9c-0.1,0.4,0,0.9,0.3,1.4c1.9,4,3.5,8.5,5.8,12.4c1.2,2,2.4,3.2,4.9,3.5
				c3.8,0.3,8.2-1.1,11.8-1.6c4.5-0.6,9.2-1.3,13.7-2c5.6-0.8,13.9-0.6,18.3-4.9c2-2,2.3-3.9,2.4-6.6c0.1-2.6-0.1-4.2,1.4-6.2
				c1.2-1.7,2.4-3.3,3.4-5C257.1,160.9,262.1,142.4,253.2,132.4z M238.2,186.3c-4.2,2.2-11.1,2-15.7,2.6c-5.6,0.8-11.1,1.6-16.6,2.4
				c-1.5,0.2-4.5,1-5.9-0.1c-0.7-0.6-1.3-2.7-1.7-3.5c-0.6-1.4-1.3-2.8-1.9-4.2c15.1,0.6,30.1-0.8,44.8-4.1
				C240.9,182.3,240.7,185.1,238.2,186.3z M243.1,173.7c-15.8,3.8-31.9,5.4-48.2,4.6c-0.2,0-0.4,0-0.5,0c0-0.1-0.1-0.1-0.1-0.2
				c-10.2-17.7-30-55-5.3-69.8c11.6-6.9,23.4,2.9,30,12.2c6.9,9.6,10.2,21.1,9.7,32.9c-0.1,2.5,3.8,3.6,4.9,1.3
				c2.4-4.9,4.4-10.1,7.1-14.8c1.5-2.6,3.8-6.2,7.4-5.3c2.6,0.6,3.8,6.4,4,8.5C253.9,154.9,248.9,164.3,243.1,173.7z"/>
			<circle class="st4" cx="206.8" cy="133.3" r="2"/>
			<circle class="st4" cx="193.9" cy="137.6" r="2"/>
			<path class="st5" d="M203.1,147.4c-1.4,0-2.9-0.4-4.5-1.2c-0.5-0.3-0.7-0.9-0.4-1.4c0.3-0.5,0.9-0.7,1.4-0.4
				c1.9,1,3.7,1.2,5.2,0.6c2.6-1,3.8-3.8,3.8-3.8c0.3-0.5,0.8-0.8,1.4-0.6c0.5,0.2,0.8,0.8,0.6,1.4c-0.1,0.1-1.5,3.7-5,5
				C204.8,147.3,203.9,147.4,203.1,147.4z"/>
		</g>
	</g>
</g>
</svg>
