<?xml version="1.0" encoding="utf-8"?>
<!-- Generator: Adobe Illustrator 25.2.1, SVG Export Plug-In . SVG Version: 6.00 Build 0)  -->
<svg version="1.1" id="Layer_1" xmlns="http://www.w3.org/2000/svg" xmlns:xlink="http://www.w3.org/1999/xlink" x="0px" y="0px"
	 viewBox="0 0 311 89.1" style="enable-background:new 0 0 311 89.1;" xml:space="preserve">
<style type="text/css">
	.st0{fill:#FFFFFF;}
</style>
<g>
	<g>
		<path class="st0" d="M101.8,34.8c0-1.2,0.2-2.1,0.5-2.5c0.4-0.4,1.1-0.7,2.1-0.7c0.4,0,0.9,0,1.7,0.1c0.7,0,1.5,0.1,2.3,0.1
			c0.8,0,1.4,0.1,2,0.1c0.6,0,1,0.1,1.1,0.1c1.9,0,3.4-0.1,4.5-0.2c1.1-0.1,2-0.2,2.7-0.2c0.6,0,1.1,0.2,1.5,0.5
			c0.3,0.3,0.6,0.9,0.7,1.6c0.1,0.7,0.2,1.6,0.3,2.8c0,1.1,0,2.5,0,4c0,2.9-0.2,5.3-0.7,7.1c-0.5,1.9-1.2,3.4-2.2,4.5
			c-1,1.1-2.3,2-4,2.5c-1.6,0.6-3.6,1-5.9,1.3c-0.3,0-0.6,0.1-0.9,0.1c-0.3,0-0.5,0-0.8,0c-1.1,0-2-0.2-2.6-0.7
			c-0.6-0.5-1-1.1-1.3-2c-0.3-0.9-0.4-1.9-0.4-3.2c0-1.3,0-2.7,0-4.3c0-1.9-0.1-3.7-0.3-5.5C101.9,38.5,101.8,36.7,101.8,34.8z
			 M106.4,37.2c0,1,0,1.8,0.1,2.6c0.1,0.8,0.1,1.5,0.1,2.2c0,0.1,0,0.4,0,1c0,0.6,0,1.2,0,2c0,0.8,0,1.5,0,2.3c0,0.7,0,1.3,0,1.8
			s0.3,0.6,1,0.6c1.3,0,2.4-0.5,3.4-1.5c0.9-1,1.4-2.6,1.4-4.8c0-1.7,0-3,0-3.8c0-0.8,0-1.6,0-2.4L106.4,37.2z M125.2,64.4
			c0.5,0,1.2,0,2,0s1.7,0,2.7,0c1,0,2.1,0,3.2-0.1c1.1,0,2.3-0.1,3.4-0.2c1.1-0.1,1.9-0.3,2.2-0.5c0.3-0.3,0.5-0.6,0.7-1.1
			c0.1-0.3,0.1-0.8,0.2-1.3c0-0.5,0.1-0.9,0.1-1.2c0-0.9-0.9-1.4-2.8-1.5c-1.9-0.1-4.6-0.1-8-0.1c-0.6,0-1-0.2-1.2-0.6
			c-0.3-0.4-0.4-0.9-0.3-1.5c0,0,0.1-0.2,0.2-0.4c0.1-0.3,0.4-0.5,0.9-0.8c0.5-0.3,1.2-0.5,2.1-0.7c1-0.2,2.3-0.3,4-0.3
			c1.4,0,3,0.1,4.6,0.2c1.6,0.1,3.3,0.4,4.9,0.7c0.6,0.1,1.2,0.4,1.6,0.9c0.4,0.4,0.8,1,1.1,1.6c0.3,0.6,0.6,1.3,0.7,2.1
			c0.1,0.8,0.2,1.6,0.2,2.3c0,1.4-0.1,2.4-0.4,3.2c-0.2,0.8-0.8,1.4-1.6,1.9c-1.2,0.7-3,1.1-5.2,1.4c-2.2,0.3-4.7,0.4-7.4,0.4
			c-0.7,0-1.4,0-2.1,0c-0.7,0-1.3,0-1.9-0.1c0,2,0.1,3.7,0.3,4.9c0.2,1.2,0.6,1.9,1.3,2.1c0.5,0.2,1.1,0.3,1.8,0.3
			c0.8,0,1.9-0.1,3.2-0.3c1.3-0.2,2.6-0.4,4-0.6c1.4-0.2,2.7-0.4,4-0.6c1.3-0.2,2.4-0.3,3.2-0.3c1.1,0,2.1,0.3,2.8,0.8
			c0.7,0.5,1.1,1.5,1.1,3c0,0.9-0.4,1.7-1.1,2.4c-0.8,0.7-1.8,1.3-3.1,1.9c-1.3,0.5-2.7,0.9-4.4,1.2c-1.6,0.3-3.3,0.4-5,0.4
			c-2.7,0-4.8-0.3-6.5-1c-1.6-0.6-2.9-1.6-3.7-3c-0.6-1-1.1-2-1.3-3c-0.3-1-0.4-2.5-0.4-4.4c0-1.7,0.1-3.3,0.4-4.6
			c-0.6-0.2-1.1-0.5-1.4-0.9c-0.3-0.4-0.5-0.9-0.5-1.5C124,64.9,124.4,64.4,125.2,64.4z M149.3,33.3c0.6,0,1.3,0,2,0.1
			c0.7,0.1,1.4,0.2,2,0.4c0.6,0.2,1.1,0.4,1.5,0.7c0.4,0.3,0.6,0.6,0.6,1.1c0,0.6-0.4,1.1-1.1,1.5c-0.8,0.4-1.7,0.7-2.8,0.9
			c-1.1,0.2-2.3,0.3-3.6,0.4c-1.3,0.1-2.4,0.1-3.4,0.1c0,0.3,0,0.5,0,0.8s0,0.6,0.1,0.9c0,1.1,0,2.4-0.3,3.7
			c-0.2,1.3-0.6,2.6-1.1,3.7c-0.5,1.1-1.1,2.1-1.9,2.8c-0.8,0.8-1.7,1.1-2.7,1.1c-0.8,0-1.5-0.2-2-0.7c-0.5-0.4-0.8-1-1.1-1.7
			c-0.2-0.7-0.4-1.5-0.4-2.3c-0.1-0.8-0.1-1.6-0.2-2.4c-0.1-1.3-0.2-2.4-0.4-3.3c-0.1-0.9-0.4-1.8-0.6-2.6c-0.3-0.8-0.6-1.8-0.9-2.7
			c-0.3-1-0.7-2.2-1.2-3.6c-0.2-0.6-0.5-1.3-0.9-1.8c-0.4-0.6-0.7-1.2-1.1-1.8c-0.3-0.6-0.6-1.2-0.9-1.8c-0.3-0.6-0.4-1.2-0.4-1.9
			c0-1.3,0.5-2.2,1.4-2.7c0.9-0.5,2-0.8,3.3-0.8c0.9,0,1.9,0.2,3.1,0.5c1.1,0.3,2.1,0.7,2.9,1.2c0.4,0.3,0.8,0.6,1.1,1
			c0.3,0.4,0.5,0.7,0.7,1.1c0.2,0.4,0.3,0.8,0.5,1.2c0.2,0.4,0.4,0.8,0.6,1.2c0.6,1,1,2,1.3,2.9c0.3,1,0.5,2.1,0.7,3.4
			c1-0.2,1.9-0.4,2.9-0.5C148,33.5,148.7,33.4,149.3,33.3z"/>
		<path class="st0" d="M166.8,67.4c1,0.2,1.8,0.8,2.3,1.6c0.5,0.9,0.7,1.8,0.7,2.9c0,1.1-0.3,2.2-1,3.2c-0.6,1-1.6,1.5-2.8,1.5
			c-1,0-1.9-0.2-2.6-0.5c-0.8-0.3-1.4-0.8-2-1.3c-0.5-0.5-0.9-1.1-1.2-1.7c-0.3-0.6-0.4-1.1-0.4-1.7c0-0.4,0.1-0.9,0.4-1.4
			c0.2-0.5,0.6-0.9,1-1.4c0.4-0.4,1-0.8,1.7-1.1c0.7-0.3,1.5-0.4,2.5-0.4c0.3,0,0.5,0,0.8,0C166.4,67.4,166.6,67.4,166.8,67.4z"/>
		<path class="st0" d="M176.4,34.8c0-1.2,0.2-2.1,0.5-2.5c0.4-0.4,1.1-0.7,2.1-0.7c0.4,0,0.9,0,1.7,0.1c0.7,0,1.5,0.1,2.3,0.1
			c0.8,0,1.4,0.1,2,0.1c0.6,0,1,0.1,1.1,0.1c1.9,0,3.4-0.1,4.5-0.2c1.1-0.1,2-0.2,2.7-0.2c0.6,0,1.1,0.2,1.5,0.5
			c0.3,0.3,0.6,0.9,0.7,1.6c0.1,0.7,0.2,1.6,0.3,2.8c0,1.1,0,2.5,0,4c0,2.9-0.2,5.3-0.7,7.1c-0.5,1.9-1.2,3.4-2.2,4.5
			c-1,1.1-2.3,2-4,2.5c-1.6,0.6-3.6,1-5.9,1.3c-0.3,0-0.6,0.1-0.9,0.1c-0.3,0-0.5,0-0.8,0c-1.1,0-2-0.2-2.6-0.7
			c-0.6-0.5-1-1.1-1.3-2c-0.3-0.9-0.4-1.9-0.4-3.2c0-1.3,0-2.7,0-4.3c0-1.9-0.1-3.7-0.3-5.5C176.5,38.5,176.4,36.7,176.4,34.8z
			 M181,37.2c0,1,0,1.8,0.1,2.6c0.1,0.8,0.1,1.5,0.1,2.2c0,0.1,0,0.4,0,1c0,0.6,0,1.2,0,2c0,0.8,0,1.5,0,2.3c0,0.7,0,1.3,0,1.8
			s0.3,0.6,1,0.6c1.3,0,2.4-0.5,3.4-1.5c0.9-1,1.4-2.6,1.4-4.8c0-1.7,0-3,0-3.8c0-0.8,0-1.6,0-2.4L181,37.2z M182.4,64.3
			c0.2-1.1,0.5-1.8,1-2.1c0.5-0.3,0.9-0.5,1.2-0.5c0.3,0,0.6,0.1,0.9,0.3c0.3,0.2,0.4,0.7,0.4,1.4c0,1.4,0,2.6,0,3.7
			c0,1.1,0.1,2.1,0.2,2.9c0.1,0.8,0.3,1.5,0.5,2c0.2,0.5,0.5,0.8,1,1c0.5,0.2,1.1,0.3,1.8,0.3c0.8,0,1.7-0.1,2.6-0.3
			c1-0.2,1.9-0.4,2.9-0.6c1-0.2,1.9-0.4,2.9-0.6c1-0.2,1.9-0.3,2.7-0.3c1.1,0,2.1,0.3,2.8,0.8c0.7,0.5,1.1,1.5,1.1,3
			c0,2.5-0.9,4.4-2.6,5.5c-1.7,1.1-4.3,1.7-7.8,1.7c-2.7,0-4.8-0.3-6.5-1c-1.6-0.6-2.9-1.6-3.7-3c-0.6-1-1.1-2.2-1.3-3.7
			s-0.4-3.1-0.4-5c0-1.1,0-2.2,0.1-3.2C182.2,65.8,182.3,65,182.4,64.3z M224.8,62.3c1.2,0.1,2.3,0.4,3.2,1.1
			c0.9,0.6,1.3,1.4,1.3,2.4c0,0.8-0.3,1.4-1,1.8c-0.6,0.5-1.4,0.8-2.3,1.1c-0.9,0.3-1.8,0.4-2.9,0.5c-1,0.1-1.9,0.2-2.7,0.2
			c-0.4,0-1.1,0-2.2-0.1c-1.1-0.1-2.4-0.2-3.8-0.3c-1.4-0.1-2.9-0.3-4.5-0.6c-1.6-0.2-3-0.6-4.3-1c-1.3-0.4-2.4-0.9-3.3-1.4
			c-0.8-0.5-1.3-1.2-1.3-1.9c0-0.5,0.2-0.9,0.6-1.2c0.4-0.3,0.9-0.6,1.5-0.7c0.6-0.2,1.2-0.3,1.9-0.4c0.7-0.1,1.4-0.1,2-0.1
			c1,0,2,0,2.9,0.1c0.9,0.1,1.8,0.2,2.6,0.3c0.8,0.1,1.7,0.2,2.6,0.3c0.9,0.1,1.8,0.1,2.9,0.1c1.1,0,2.2-0.1,3.3-0.2
			C222.6,62.3,223.7,62.3,224.8,62.3z M223.9,33.3c0.6,0,1.3,0,2,0.1c0.7,0.1,1.4,0.2,2,0.4c0.6,0.2,1.1,0.4,1.5,0.7
			c0.4,0.3,0.6,0.6,0.6,1.1c0,0.6-0.4,1.1-1.1,1.5c-0.8,0.4-1.7,0.7-2.8,0.9c-1.1,0.2-2.3,0.3-3.6,0.4c-1.3,0.1-2.4,0.1-3.4,0.1
			c0,0.3,0,0.5,0,0.8s0,0.6,0.1,0.9c0,1.1,0,2.4-0.3,3.7c-0.2,1.3-0.6,2.6-1.1,3.7c-0.5,1.1-1.1,2.1-1.9,2.8
			c-0.8,0.8-1.7,1.1-2.7,1.1c-0.8,0-1.5-0.2-2-0.7c-0.5-0.4-0.8-1-1.1-1.7c-0.2-0.7-0.4-1.5-0.4-2.3c-0.1-0.8-0.1-1.6-0.2-2.4
			c-0.1-1.3-0.2-2.4-0.4-3.3c-0.1-0.9-0.4-1.8-0.6-2.6c-0.3-0.8-0.6-1.8-0.9-2.7c-0.3-1-0.7-2.2-1.2-3.6c-0.2-0.6-0.5-1.3-0.9-1.8
			c-0.4-0.6-0.7-1.2-1.1-1.8c-0.3-0.6-0.6-1.2-0.9-1.8c-0.3-0.6-0.4-1.2-0.4-1.9c0-1.3,0.5-2.2,1.4-2.7c0.9-0.5,2-0.8,3.3-0.8
			c0.9,0,1.9,0.2,3.1,0.5c1.1,0.3,2.1,0.7,2.9,1.2c0.4,0.3,0.8,0.6,1.1,1c0.3,0.4,0.5,0.7,0.7,1.1c0.2,0.4,0.3,0.8,0.5,1.2
			c0.2,0.4,0.4,0.8,0.6,1.2c0.6,1,1,2,1.3,2.9c0.3,1,0.5,2.1,0.7,3.4c1-0.2,1.9-0.4,2.9-0.5C222.6,33.5,223.3,33.4,223.9,33.3z
			 M220.6,54.3c0.8,0.1,1.4,0.4,2,0.9c0.6,0.5,0.9,1.1,0.9,1.8c0,0.6-0.2,1.1-0.6,1.4c-0.4,0.4-0.9,0.6-1.5,0.9
			c-0.6,0.2-1.2,0.4-1.8,0.4c-0.6,0.1-1.2,0.1-1.7,0.1c-0.3,0-0.7,0-1.4-0.1c-0.7,0-1.5-0.1-2.4-0.3c-0.9-0.1-1.9-0.3-2.8-0.5
			c-1-0.2-1.9-0.4-2.7-0.7c-0.8-0.3-1.5-0.7-2-1.1c-0.5-0.4-0.8-0.9-0.8-1.5c0-0.4,0.1-0.7,0.4-1c0.2-0.3,0.5-0.5,0.9-0.6
			c0.4-0.1,0.8-0.2,1.2-0.3c0.4,0,0.9-0.1,1.2-0.1c1.3,0,2.5,0.1,3.5,0.4c1,0.2,2.2,0.4,3.4,0.4c0.7,0,1.4,0,2.1-0.1
			C219.2,54.3,219.8,54.3,220.6,54.3z M217.6,71.5c1.4,0.3,2.4,1,3,2.2c0.7,1.1,1,2.4,1,3.8c0,0.8-0.1,1.5-0.3,2.3
			c-0.2,0.8-0.5,1.4-1,2c-0.4,0.6-1,1.1-1.6,1.4c-0.6,0.4-1.4,0.5-2.2,0.5c-1.3,0-2.4-0.2-3.5-0.7c-1-0.5-1.9-1-2.7-1.7
			c-0.7-0.7-1.3-1.4-1.7-2.2c-0.4-0.8-0.6-1.5-0.6-2.1c0-0.6,0.1-1.2,0.4-1.8c0.3-0.7,0.8-1.3,1.4-1.8c0.6-0.6,1.4-1,2.4-1.4
			c1-0.4,2.1-0.6,3.3-0.6c0.3,0,0.7,0,1,0C217,71.4,217.3,71.5,217.6,71.5z M214.6,75.4h-0.4c-0.7,0-1.2,0.2-1.4,0.5
			c-0.3,0.3-0.4,0.6-0.4,0.9c0,0.3,0.2,0.7,0.5,1.1c0.4,0.4,0.9,0.6,1.5,0.6c0.4,0,0.7-0.2,0.9-0.5c0.2-0.3,0.3-0.7,0.3-1.1
			C215.6,76.2,215.3,75.7,214.6,75.4z"/>
		<path class="st0" d="M241.5,67.4c1,0.2,1.8,0.8,2.3,1.6c0.5,0.9,0.7,1.8,0.7,2.9c0,1.1-0.3,2.2-1,3.2c-0.6,1-1.6,1.5-2.8,1.5
			c-1,0-1.9-0.2-2.6-0.5c-0.8-0.3-1.4-0.8-2-1.3c-0.5-0.5-0.9-1.1-1.2-1.7c-0.3-0.6-0.4-1.1-0.4-1.7c0-0.4,0.1-0.9,0.4-1.4
			c0.2-0.5,0.6-0.9,1-1.4c0.4-0.4,1-0.8,1.7-1.1c0.7-0.3,1.5-0.4,2.5-0.4c0.3,0,0.5,0,0.8,0C241,67.4,241.3,67.4,241.5,67.4z"/>
		<path class="st0" d="M262.7,43.5h1c-0.1-1.4-0.2-2.6-0.4-3.7c-0.1-1.1-0.2-2-0.3-2.5c-0.1-0.5-0.1-0.9-0.1-1.2c0-0.4,0-0.7,0-1.1
			c0.1-1.6,0.5-2.7,1.2-3.3c0.7-0.6,1.8-0.8,3.3-0.7c1.5,0.1,2.7,0.6,3.5,1.6c0.8,0.9,1.4,2.1,1.7,3.4c0.3,1.4,0.5,2.9,0.5,4.5
			c0,1.6,0,3.2-0.1,4.7c-0.1,2.5-0.3,4.9-0.7,6.9c-0.4,2.1-1,3.6-1.8,4.6c-0.9,1.1-1.9,2-3.2,2.8c-1.3,0.8-2.6,1.4-4,1.9
			c-1.4,0.5-2.8,0.9-4.1,1.1c-1.4,0.2-2.6,0.3-3.7,0.3c-0.9,0-1.7-0.3-2.2-0.6c-0.5-0.4-0.9-0.9-1.1-1.6c-0.3-0.7-0.4-1.5-0.5-2.5
			c-0.1-1-0.1-2.1-0.2-3.4c0-0.8-0.1-2.2-0.3-4c-0.2-1.8-0.4-3.7-0.5-5.6c-0.2-1.9-0.4-3.7-0.5-5.2c-0.1-1.6-0.2-2.5-0.2-2.9
			c0-0.7,0.2-1.2,0.6-1.5c0.4-0.3,1-0.4,1.9-0.4c0.4,0,0.8,0.1,1.1,0.4c0.3,0.3,0.6,0.7,0.6,1.4c0.2,1.4,0.4,2.8,0.6,4.2
			c0.2,1.4,0.4,2.9,0.5,4.4c1.1-0.5,2.4-0.9,3.8-1.2C260.8,43.8,261.9,43.6,262.7,43.5z M256.7,57.1c0,0.2,0.2,0.3,0.5,0.3
			c0.3,0,0.8-0.2,1.6-0.4c0.8-0.2,1.6-0.6,2.4-1s1.5-1,2.1-1.6c0.6-0.6,0.9-1.3,0.9-2.2c0-0.3,0-0.9,0-1.6c0-0.7-0.1-1.5-0.2-2.5
			c-1,0.2-2,0.4-3,0.4c-1,0.1-1.9,0.1-2.6,0.2c-0.9,0.1-1.8,0.1-2.5,0c0.1,1.5,0.3,2.9,0.4,4.4C256.5,54.5,256.6,55.8,256.7,57.1z
			 M286.5,39.4c0.7,0,1.4,0.1,2.2,0.2c-0.2-0.8-0.4-1.6-0.6-2.4c-0.2-0.8-0.4-1.7-0.7-2.7c-0.2-0.7-0.5-1.4-0.9-2.1
			c-0.4-0.7-0.7-1.4-1.1-2.1c-0.3-0.7-0.6-1.4-0.9-2.1c-0.3-0.7-0.4-1.5-0.4-2.2c0-1.5,0.5-2.5,1.4-3.2c0.9-0.6,2-1,3.2-1
			c0.9,0,1.9,0.2,3.1,0.5c1.1,0.4,2.1,0.8,2.9,1.4c0.4,0.3,0.8,0.7,1,1.1c0.3,0.4,0.5,0.9,0.6,1.3c0.2,0.5,0.3,0.9,0.5,1.4
			c0.2,0.5,0.4,0.9,0.6,1.4c0.5,0.9,0.8,1.9,1.1,2.8c0.3,0.9,0.5,1.9,0.7,3.1c0.2,1.1,0.3,2.4,0.4,3.8c0.1,1.4,0.1,3.1,0.1,5
			c0,4.5-0.5,8.1-1.4,10.8c-0.9,2.6-2.4,4-4.5,4c-0.9,0-1.5-0.2-2-0.7c-0.5-0.5-0.8-1.1-1.1-1.8c-0.2-0.7-0.4-1.6-0.4-2.5
			c-0.1-0.9-0.1-1.8-0.2-2.7c-0.1-1.3-0.2-2.5-0.3-3.5s-0.3-2.2-0.5-3.3c-1.2,0.3-2.6,0.5-4.2,0.5c-1.6,0.1-2.9,0.1-4.1,0.1
			c-1.7,0-3.1-0.1-4.3-0.4c-1.1-0.2-1.7-0.6-1.7-1.1c0-0.6,0.4-1.1,1.3-1.5c0.9-0.4,1.9-0.8,3.1-1.1c1.2-0.3,2.4-0.5,3.7-0.7
			C284.7,39.6,285.8,39.5,286.5,39.4z M292.3,62.5c0.8,0.2,1.5,0.6,2.1,1.1c0.6,0.6,1.1,1.2,1.5,2c0.4,0.8,0.7,1.7,0.9,2.6
			c0.2,1,0.3,1.9,0.3,2.9c0,1.1-0.1,2.3-0.4,3.3c-0.3,1.1-0.7,2.1-1.2,2.9c-0.5,0.9-1.1,1.6-1.9,2.1c-0.8,0.5-1.7,0.8-2.7,0.8
			c-1.6,0-3-0.3-4.3-1c-1.3-0.7-2.4-1.5-3.2-2.5c-0.9-1-1.6-2-2-3.2c-0.5-1.1-0.7-2.2-0.7-3.2c0-0.8,0.2-1.7,0.5-2.6
			c0.4-1,0.9-1.8,1.7-2.6c0.8-0.8,1.7-1.5,2.9-2c1.1-0.6,2.5-0.8,4.1-0.8c0.4,0,0.8,0,1.2,0.1C291.5,62.4,291.9,62.4,292.3,62.5z
			 M288.7,68.1h-0.6c-0.9,0-1.4,0.2-1.8,0.7c-0.3,0.5-0.5,0.9-0.5,1.3c0,0.5,0.2,1,0.6,1.6c0.4,0.6,1,0.9,1.8,0.9
			c0.5,0,0.8-0.2,1.1-0.7c0.3-0.5,0.4-1,0.4-1.6C289.8,69.3,289.4,68.6,288.7,68.1z"/>
	</g>
	<g>
		<g>
			<g>
				<g>
					<path class="st0" d="M79.7,40.6c-5.4-6.2-10.2,0.8-13.3,6.9c-1-6.6-3.6-12.9-7.8-18.2c-5.2-6.5-13.4-12.4-21.9-8.6
						c-8.4,3.8-11.9,13.1-11,21.8c1,10.5,6.2,20.9,11.4,30c0,0.3,0,0.6,0.2,0.9c1.3,2.7,2.4,5.7,3.9,8.2c0.8,1.4,1.6,2.2,3.2,2.3
						c2.5,0.2,5.5-0.7,7.9-1.1c3-0.4,6.1-0.9,9.1-1.3c3.7-0.5,9.3-0.4,12.2-3.3c1.4-1.3,1.5-2.6,1.6-4.4c0-1.8,0-2.8,0.9-4.1
						c0.8-1.1,1.6-2.2,2.2-3.3C82.3,59.6,85.6,47.2,79.7,40.6z M69.6,76.6c-2.8,1.5-7.4,1.3-10.5,1.8c-3.7,0.5-7.4,1.1-11.1,1.6
						c-1,0.1-3,0.6-3.9-0.1c-0.5-0.4-0.8-1.8-1.1-2.4c-0.4-0.9-0.9-1.8-1.3-2.8c10.1,0.4,20.1-0.5,30-2.7
						C71.4,73.9,71.3,75.8,69.6,76.6z M72.9,68.2c-10.6,2.6-21.3,3.6-32.2,3.1c-0.1,0-0.2,0-0.4,0c0,0,0-0.1-0.1-0.1
						c-6.8-11.8-20-36.8-3.5-46.6c7.8-4.6,15.6,1.9,20.1,8.1c4.6,6.4,6.8,14.1,6.5,22c-0.1,1.7,2.5,2.5,3.3,0.9
						c1.6-3.3,3-6.7,4.7-9.9c1-1.7,2.5-4.1,4.9-3.5c1.8,0.4,2.5,4.3,2.7,5.7C80.1,55.6,76.8,61.9,72.9,68.2z"/>
				</g>
			</g>
			<g>
				<g>
					<circle class="st0" cx="48.6" cy="41.2" r="1.3"/>
				</g>
				<g>
					<path class="st0" d="M48.6,43.2c-1.1,0-2-0.9-2-2s0.9-2,2-2c1.1,0,2,0.9,2,2S49.8,43.2,48.6,43.2z M48.6,40.5
						c-0.3,0-0.6,0.3-0.6,0.6s0.3,0.6,0.6,0.6c0.3,0,0.6-0.3,0.6-0.6S49,40.5,48.6,40.5z"/>
				</g>
			</g>
			<g>
				<g>
					<circle class="st0" cx="40" cy="44" r="1.3"/>
				</g>
				<g>
					<path class="st0" d="M40,46c-1.1,0-2-0.9-2-2c0-1.1,0.9-2,2-2c1.1,0,2,0.9,2,2C42,45.1,41.1,46,40,46z M40,43.4
						c-0.3,0-0.6,0.3-0.6,0.6c0,0.3,0.3,0.6,0.6,0.6c0.3,0,0.6-0.3,0.6-0.6C40.7,43.7,40.4,43.4,40,43.4z"/>
				</g>
			</g>
			<g>
				<path class="st0" d="M46.2,50.6c-0.9,0-1.9-0.3-3-0.8c-0.3-0.2-0.5-0.6-0.3-1c0.2-0.3,0.6-0.5,1-0.3c1.3,0.7,2.5,0.8,3.5,0.4
					c1.7-0.6,2.5-2.5,2.5-2.5c0.2-0.4,0.6-0.5,0.9-0.4c0.4,0.1,0.5,0.6,0.4,0.9c0,0.1-1,2.5-3.3,3.3C47.3,50.5,46.8,50.6,46.2,50.6z
					"/>
			</g>
		</g>
	</g>
</g>
</svg>
