<?xml version="1.0" encoding="utf-8"?>
<!-- Generator: Adobe Illustrator 25.2.0, SVG Export Plug-In . SVG Version: 6.00 Build 0)  -->
<svg version="1.1" id="Layer_1" xmlns="http://www.w3.org/2000/svg" xmlns:xlink="http://www.w3.org/1999/xlink" x="0px" y="0px"
	 viewBox="0 0 311 89.1" style="enable-background:new 0 0 311 89.1;" xml:space="preserve">
<style type="text/css">
	.st0{fill:#000D24;}
	.st1{fill:url(#SVGID_1_);}
	.st2{fill:#FCFCFD;}
	.st3{stroke:#000000;stroke-width:0.7;stroke-linecap:round;stroke-linejoin:round;stroke-miterlimit:10;}
	.st4{fill:#FF5400;}
</style>
<g>
	<path class="st0" d="M96.7,34.7c0-1.3,0.2-2.2,0.5-2.6c0.4-0.5,1.1-0.6,2.2-0.6c0.4,0,1,0,1.7,0.1c0.7,0,1.5,0.1,2.3,0.1
		s1.4,0.1,2.1,0.1s1,0.1,1.1,0.1c1.9,0,3.4-0.1,4.6-0.3c1.2-0.2,2.1-0.3,2.8-0.3c0.6,0,1.2,0.2,1.5,0.5c0.4,0.4,0.6,0.9,0.7,1.6
		c0.2,0.7,0.3,1.7,0.3,2.8c0,1.2,0,2.5,0,4.1c0,3-0.3,5.4-0.7,7.3c-0.5,1.9-1.3,3.4-2.3,4.6c-1.1,1.2-2.4,2-4.1,2.6
		c-1.6,0.6-3.7,1-6,1.3c-0.4,0-0.6,0.1-0.9,0.1s-0.5,0-0.8,0c-1.2,0-2.1-0.3-2.7-0.7c-0.6-0.5-1.1-1.2-1.3-2.1
		c-0.3-0.9-0.4-2-0.4-3.2c0-1.3,0-2.8,0-4.4c0-1.9-0.1-3.8-0.3-5.7C96.8,38.6,96.7,36.7,96.7,34.7z M101.4,37.2c0,1,0,1.9,0.1,2.7
		c0.1,0.8,0.1,1.5,0.1,2.3c0,0.1,0,0.5,0,1c0,0.6,0,1.3,0,2.1s0,1.5,0,2.3c0,0.7,0,1.3,0,1.8s0.4,0.6,1.1,0.6c1.3,0,2.5-0.5,3.5-1.5
		c1-1.1,1.4-2.7,1.4-5c0-1.7,0-3.1,0-3.9c0-0.9,0-1.7,0-2.4H101.4z M120.7,65c0.5,0,1.2,0,2.1,0c0.8,0,1.8,0,2.8,0s2.2,0,3.3-0.1
		c1.2,0,2.3-0.1,3.5-0.2c1.2-0.1,1.9-0.3,2.3-0.5c0.4-0.2,0.5-0.6,0.7-1.1c0.1-0.4,0.2-0.8,0.2-1.3s0.1-0.9,0.1-1.3
		c0-1-0.9-1.4-2.9-1.5s-4.7-0.1-8.3-0.1c-0.5,0-1-0.2-1.3-0.6c-0.3-0.5-0.4-0.9-0.3-1.5c0,0,0.1-0.2,0.2-0.5s0.4-0.5,0.9-0.8
		c0.4-0.3,1.2-0.5,2.2-0.7s2.3-0.4,4.1-0.4c1.4,0,3.1,0.1,4.8,0.2c1.7,0.1,3.3,0.4,5,0.7c0.6,0.1,1.2,0.5,1.7,0.9
		c0.5,0.5,0.8,1,1.2,1.6s0.5,1.3,0.7,2.2c0.2,0.8,0.3,1.6,0.3,2.3c0,1.3-0.1,2.5-0.4,3.3s-0.8,1.4-1.6,1.9c-1.3,0.7-3.1,1.2-5.3,1.4
		c-2.3,0.3-4.8,0.4-7.6,0.4c-0.7,0-1.4,0-2.2,0s-1.4,0-2-0.1c0,2.1,0.1,3.8,0.3,5c0.2,1.3,0.6,2,1.3,2.2c0.5,0.2,1.2,0.3,1.9,0.3
		c0.8,0,1.9-0.1,3.2-0.3c1.3-0.2,2.7-0.4,4.1-0.6c1.4-0.3,2.8-0.5,4-0.6c1.4-0.2,2.4-0.3,3.3-0.3c1.2,0,2.2,0.3,2.9,0.8
		s1.1,1.5,1.1,3.1c0,0.9-0.4,1.7-1.2,2.4c-0.8,0.7-1.8,1.3-3.2,1.9c-1.3,0.5-2.8,1-4.5,1.3s-3.4,0.4-5.1,0.4c-2.8,0-4.9-0.4-6.7-1
		c-1.7-0.6-3-1.7-3.9-3.1c-0.6-1.1-1.1-2.1-1.3-3.1c-0.3-1-0.4-2.5-0.4-4.5c0-1.8,0.2-3.3,0.4-4.7c-0.6-0.2-1.1-0.5-1.4-0.9
		c-0.4-0.4-0.5-0.9-0.5-1.5C119.5,65.5,119.9,65,120.7,65z M145.5,33.2c0.6,0,1.4,0,2.1,0.1c0.7,0.1,1.4,0.3,2.1,0.4
		c0.6,0.2,1.2,0.5,1.5,0.7c0.4,0.3,0.6,0.6,0.6,1.1c0,0.6-0.4,1.2-1.2,1.5c-0.8,0.4-1.8,0.7-2.9,0.9c-1.2,0.2-2.4,0.4-3.7,0.4
		c-1.3,0.1-2.5,0.1-3.5,0.1c0,0.3,0,0.5,0,0.8c0,0.3,0,0.5,0.1,0.9c0,1.2,0,2.4-0.3,3.8c-0.2,1.3-0.5,2.6-1.1,3.8
		c-0.5,1.2-1.2,2.2-1.9,2.9c-0.8,0.8-1.7,1.2-2.8,1.2c-0.9,0-1.5-0.3-2.1-0.7c-0.5-0.5-0.9-1.1-1.1-1.8c-0.2-0.7-0.4-1.5-0.5-2.3
		s-0.1-1.6-0.2-2.4c-0.2-1.1-0.3-2.2-0.4-3.1c-0.2-0.9-0.4-1.8-0.6-2.7c-0.3-0.9-0.5-1.8-0.9-2.8s-0.7-2.3-1.3-3.7
		c-0.2-0.6-0.5-1.3-0.9-1.9c-0.4-0.6-0.7-1.3-1.1-1.8c-0.4-0.6-0.6-1.3-1-1.9c-0.2-0.5-0.4-1.2-0.4-1.9c0-1.3,0.4-2.3,1.4-2.8
		s2.1-0.8,3.4-0.8c0.9,0,2,0.2,3.2,0.5c1.2,0.4,2.2,0.7,3,1.2c0.5,0.3,0.8,0.6,1.1,1c0.3,0.4,0.5,0.7,0.7,1.2
		c0.2,0.4,0.4,0.8,0.5,1.3c0.2,0.5,0.4,0.8,0.6,1.2c0.6,1,1.1,2,1.4,3s0.5,2.2,0.7,3.5c1-0.2,2-0.4,3-0.4
		C144,33.5,144.8,33.3,145.5,33.2z"/>
	<path class="st0" d="M163.5,68.1c1.1,0.2,1.8,0.8,2.3,1.6c0.5,0.9,0.7,1.9,0.7,3c0,1.2-0.4,2.3-1,3.3s-1.6,1.5-2.9,1.5
		c-1,0-1.9-0.2-2.7-0.5c-0.8-0.3-1.4-0.8-2.1-1.3c-0.5-0.5-1-1.1-1.3-1.7c-0.3-0.6-0.4-1.2-0.4-1.7c0-0.4,0.1-0.9,0.4-1.4
		c0.3-0.5,0.6-1,1.1-1.4s1.1-0.8,1.8-1.1s1.6-0.5,2.6-0.5c0.3,0,0.5,0,0.8,0C163.1,67.9,163.2,68.1,163.5,68.1z"/>
	<path class="st0" d="M173.3,34.7c0-1.3,0.2-2.2,0.5-2.6c0.4-0.5,1.1-0.7,2.2-0.7c0.4,0,1,0,1.7,0.1c0.7,0,1.5,0.1,2.3,0.1
		s1.4,0.1,2.1,0.1c0.6,0,1,0.1,1.1,0.1c1.9,0,3.4-0.1,4.6-0.3c1.2-0.2,2.1-0.3,2.8-0.3c0.6,0,1.2,0.2,1.5,0.5
		c0.4,0.4,0.6,0.9,0.7,1.6c0.2,0.7,0.3,1.7,0.3,2.8c0,1.2,0,2.5,0,4.1c0,3-0.3,5.4-0.7,7.3s-1.3,3.4-2.3,4.6c-1.1,1.2-2.4,2-4.1,2.6
		c-1.6,0.6-3.7,1-6,1.3c-0.4,0-0.6,0.1-0.9,0.1s-0.5,0-0.8,0c-1.2,0-2.1-0.3-2.7-0.7c-0.6-0.4-1.1-1.2-1.3-2.1
		c-0.3-0.9-0.4-2-0.4-3.2c0-1.3,0-2.8,0-4.4c0-1.9-0.1-3.8-0.3-5.7C173.4,38.6,173.3,36.7,173.3,34.7z M178,37.2c0,1,0,1.9,0.1,2.7
		c0.1,0.8,0.1,1.5,0.1,2.3c0,0.1,0,0.5,0,1c0,0.6,0,1.3,0,2.1s0,1.5,0,2.3c0,0.7,0,1.3,0,1.8s0.4,0.6,1.1,0.6c1.4,0,2.5-0.5,3.5-1.5
		c1-1.1,1.4-2.7,1.4-5c0-1.7,0-3.1,0-3.9c0-0.9,0-1.7,0-2.4H178z M179.4,64.9c0.2-1.2,0.5-1.9,1.1-2.2c0.5-0.4,0.9-0.4,1.3-0.4
		c0.3,0,0.6,0.1,0.9,0.4c0.3,0.2,0.4,0.7,0.4,1.4c0,1.3,0,2.7,0,3.8c0,1.2,0.1,2.2,0.2,3c0.1,0.8,0.3,1.5,0.4,2.1
		c0.2,0.5,0.5,0.8,1,1c0.5,0.2,1.2,0.3,1.9,0.3c0.8,0,1.7-0.1,2.7-0.3c1-0.2,2-0.4,3-0.6c1-0.3,2-0.5,3-0.6c1-0.2,1.9-0.3,2.8-0.3
		c1.2,0,2.2,0.3,2.9,0.8s1.1,1.5,1.1,3.1c0,2.6-0.9,4.5-2.7,5.7s-4.4,1.7-8,1.7c-2.8,0-4.9-0.4-6.7-1s-3-1.7-3.9-3.1
		c-0.6-1.1-1.1-2.3-1.3-3.8c-0.3-1.4-0.4-3.2-0.4-5.1c0-1.2,0-2.3,0.1-3.2C179.2,66.5,179.3,65.6,179.4,64.9z M223,62.9
		c1.3,0.1,2.3,0.5,3.2,1.1c0.9,0.6,1.4,1.4,1.4,2.4c0,0.8-0.4,1.4-1,1.9s-1.4,0.8-2.3,1.1c-0.9,0.3-1.9,0.5-3,0.5
		c-1.1,0.1-2,0.2-2.8,0.2c-0.4,0-1.2,0-2.3-0.1c-1.2-0.1-2.4-0.2-4-0.4c-1.4-0.2-3.1-0.4-4.6-0.6c-1.6-0.3-3.1-0.5-4.4-1
		c-1.3-0.4-2.4-0.9-3.3-1.4c-0.9-0.5-1.4-1.2-1.4-1.9c0-0.5,0.2-0.9,0.6-1.3c0.4-0.4,0.9-0.5,1.5-0.7s1.3-0.3,2-0.4
		c0.7-0.1,1.4-0.1,2.1-0.1c1.1,0,2.1,0,3,0.1s1.8,0.2,2.7,0.4c0.9,0.1,1.8,0.3,2.7,0.4c0.9,0.1,1.9,0.1,3,0.1c1.2,0,2.3-0.1,3.4-0.2
		C220.6,62.9,221.8,62.9,223,62.9z M222.1,33.2c0.6,0,1.4,0,2.1,0.1s1.4,0.3,2.1,0.4c0.6,0.2,1.2,0.5,1.5,0.7
		c0.5,0.3,0.6,0.6,0.6,1.1c0,0.6-0.4,1.2-1.2,1.5s-1.8,0.7-2.9,0.9c-1.2,0.2-2.4,0.4-3.7,0.4c-1.4,0.1-2.5,0.1-3.5,0.1
		c0,0.3,0,0.5,0,0.8c0,0.3,0,0.5,0.1,0.9c0,1.2,0,2.4-0.3,3.8c-0.2,1.3-0.5,2.6-1.1,3.8c-0.5,1.2-1.2,2.2-1.9,2.9
		c-0.8,0.8-1.7,1.2-2.8,1.2c-0.9,0-1.5-0.3-2.1-0.7c-0.5-0.5-0.9-1.1-1.1-1.8c-0.2-0.7-0.4-1.5-0.4-2.3c-0.1-0.8-0.1-1.6-0.2-2.4
		c-0.1-1.3-0.2-2.4-0.4-3.3c-0.2-0.9-0.4-1.8-0.6-2.7c-0.3-0.9-0.5-1.8-0.9-2.8s-0.7-2.3-1.3-3.7c-0.2-0.6-0.5-1.3-0.9-1.9
		c-0.4-0.6-0.7-1.3-1.1-1.8c-0.4-0.6-0.6-1.3-1-1.9c-0.3-0.6-0.4-1.3-0.4-1.9c0-1.3,0.4-2.3,1.4-2.8c1-0.5,2.1-0.8,3.4-0.8
		c0.9,0,2,0.2,3.1,0.5c1.2,0.4,2.2,0.7,3,1.2c0.4,0.3,0.8,0.6,1.1,1c0.3,0.4,0.5,0.7,0.7,1.2c0.2,0.4,0.4,0.8,0.5,1.3
		c0.2,0.4,0.4,0.8,0.6,1.2c0.6,1,1.1,2,1.4,3s0.5,2.2,0.7,3.5c1-0.2,2-0.4,3-0.4C220.7,33.5,221.4,33.3,222.1,33.2z M218.6,54.7
		c0.8,0.1,1.4,0.4,2.1,0.9c0.6,0.5,0.9,1.1,0.9,1.9c0,0.6-0.2,1.1-0.6,1.4c-0.4,0.4-0.9,0.6-1.5,0.9c-0.6,0.2-1.2,0.4-1.9,0.4
		c-0.6,0.1-1.3,0.1-1.7,0.1c-0.3,0-0.7,0-1.4-0.1c-0.7,0-1.5-0.1-2.4-0.3c-0.9-0.1-1.9-0.3-2.9-0.5s-1.9-0.5-2.8-0.7
		c-0.8-0.3-1.5-0.6-2.1-1.1c-0.5-0.5-0.8-0.9-0.8-1.5c0-0.4,0.1-0.7,0.4-1s0.5-0.5,1-0.6c0.4-0.2,0.8-0.3,1.3-0.3
		c0.4,0,0.9-0.1,1.3-0.1c1.4,0,2.5,0.1,3.6,0.4c1.1,0.3,2.3,0.4,3.5,0.4c0.7,0,1.4,0,2.2-0.1C217.1,54.7,217.8,54.7,218.6,54.7z
		 M215.5,72.3c1.4,0.3,2.4,1.1,3.2,2.3c0.7,1.2,1,2.4,1,3.9c0,0.8-0.1,1.5-0.4,2.3c-0.2,0.8-0.5,1.4-1,2.1c-0.4,0.6-1,1.1-1.6,1.4
		c-0.6,0.4-1.4,0.5-2.3,0.5c-1.4,0-2.5-0.3-3.6-0.7c-1.1-0.5-2-1.1-2.8-1.8c-0.7-0.7-1.4-1.4-1.7-2.3c-0.3-0.9-0.6-1.5-0.6-2.2
		c0-0.5,0.2-1.2,0.4-1.9c0.3-0.6,0.8-1.3,1.4-1.9c0.6-0.5,1.4-1.1,2.4-1.4c1-0.4,2.2-0.6,3.4-0.6c0.4,0,0.7,0,1,0
		C214.9,72.2,215.2,72.2,215.5,72.3z M212.5,76.3h-0.4c-0.7,0-1.2,0.2-1.4,0.5c-0.3,0.4-0.4,0.6-0.4,0.9c0,0.4,0.2,0.7,0.5,1.2
		c0.4,0.4,0.9,0.6,1.5,0.6c0.4,0,0.7-0.2,1-0.5c0.2-0.4,0.3-0.7,0.3-1.2C213.5,77.1,213.2,76.6,212.5,76.3z"/>
	<path class="st0" d="M240.1,68.1c1.1,0.2,1.8,0.8,2.3,1.6c0.5,0.9,0.7,1.9,0.7,3c0,1.2-0.4,2.3-1,3.3s-1.6,1.5-2.9,1.5
		c-1,0-1.9-0.2-2.7-0.5c-0.8-0.3-1.4-0.8-2.1-1.3c-0.5-0.5-1-1.1-1.3-1.7c-0.3-0.6-0.4-1.2-0.4-1.7c0-0.4,0.1-0.9,0.4-1.4
		c0.3-0.5,0.6-1,1.1-1.4s1.1-0.8,1.8-1.1s1.6-0.5,2.6-0.5c0.3,0,0.5,0,0.8,0C239.6,68.1,239.9,68.1,240.1,68.1z"/>
	<path class="st0" d="M261.8,43.7h1.1c-0.1-1.3-0.3-2.6-0.4-3.8c-0.1-1.2-0.2-2-0.3-2.6c-0.1-0.5-0.1-0.9-0.1-1.3s0-0.7,0-1.1
		c0.1-1.6,0.5-2.8,1.3-3.3c0.7-0.6,1.9-0.8,3.4-0.7s2.8,0.6,3.6,1.6c0.8,0.9,1.4,2.1,1.8,3.5s0.5,3,0.5,4.6c0,1.7,0,3.3-0.1,4.9
		c-0.1,2.6-0.4,4.9-0.7,7.1c-0.4,2.1-1.1,3.7-1.9,4.7c-0.9,1.1-2,2.1-3.2,2.8c-1.3,0.8-2.6,1.4-4,2c-1.4,0.5-2.9,0.9-4.2,1.2
		c-1.4,0.3-2.7,0.4-3.8,0.3c-1,0-1.7-0.3-2.3-0.6c-0.5-0.4-0.9-0.9-1.2-1.6c-0.3-0.7-0.4-1.6-0.4-2.6c-0.1-1-0.2-2.2-0.3-3.5
		c0-0.9-0.2-2.3-0.4-4c-0.2-1.9-0.4-3.8-0.5-5.7c-0.2-2-0.4-3.7-0.4-5.3c-0.1-1.6-0.2-2.6-0.2-3c0-0.7,0.3-1.3,0.6-1.5
		c0.4-0.3,1.1-0.5,2-0.4c0.5,0,0.8,0.2,1.2,0.5c0.4,0.3,0.5,0.7,0.6,1.4c0.2,1.3,0.4,2.8,0.6,4.2c0.2,1.4,0.4,3,0.5,4.5
		c1.2-0.4,2.5-0.9,3.9-1.2C259.9,44,261,43.8,261.8,43.7z M255.7,57.6c0,0.2,0.2,0.3,0.5,0.3c0.3,0,0.8-0.2,1.6-0.5
		c0.8-0.3,1.6-0.6,2.4-1.1s1.5-1,2.2-1.6c0.6-0.6,1-1.4,1-2.3c0-0.4,0-0.9,0-1.6c0-0.7-0.1-1.6-0.2-2.5c-1,0.2-2,0.4-3.1,0.5
		c-1,0.1-1.9,0.2-2.6,0.3c-1,0.1-1.8,0.1-2.5,0c0.1,1.5,0.3,3,0.4,4.5C255.5,54.9,255.6,56.3,255.7,57.6z M286.3,39.5
		c0.7,0,1.4,0.1,2.3,0.2c-0.2-0.8-0.5-1.6-0.6-2.4c-0.2-0.8-0.4-1.8-0.7-2.8c-0.2-0.7-0.5-1.4-0.9-2.2c-0.4-0.7-0.7-1.4-1.1-2.2
		c-0.4-0.7-0.6-1.4-1-2.2c-0.3-0.7-0.4-1.5-0.4-2.3c0-1.5,0.4-2.6,1.4-3.2c1-0.6,2.1-1,3.3-1c0.9,0,2,0.2,3.1,0.5
		c1.2,0.4,2.2,0.9,3,1.4c0.5,0.4,0.8,0.7,1.1,1.2c0.3,0.5,0.4,0.9,0.6,1.3c0.2,0.5,0.4,1,0.5,1.4c0.2,0.5,0.4,1,0.6,1.4
		c0.5,1,0.9,1.9,1.2,2.8c0.3,0.9,0.5,2,0.7,3.2c0.2,1.2,0.4,2.4,0.4,3.9c0.1,1.4,0.1,3.1,0.1,5c0,4.7-0.4,8.3-1.4,11
		c-0.9,2.7-2.5,4-4.6,4c-0.9,0-1.5-0.3-2.1-0.7s-0.9-1.1-1.1-1.9c-0.2-0.7-0.4-1.6-0.5-2.5s-0.1-1.8-0.2-2.7
		c-0.1-1.3-0.2-2.5-0.3-3.6c-0.1-1.1-0.3-2.3-0.4-3.3c-1.3,0.3-2.7,0.4-4.3,0.5c-1.6,0.1-3,0.1-4.2,0.1c-1.7,0-3.2-0.1-4.4-0.4
		c-1.2-0.3-1.8-0.6-1.8-1.1s0.5-1.1,1.4-1.5c0.9-0.5,2-0.8,3.1-1.2c1.3-0.3,2.5-0.5,3.8-0.7C284.5,39.7,285.5,39.6,286.3,39.5z
		 M292.2,63.1c0.8,0.2,1.5,0.6,2.2,1.2c0.6,0.5,1.2,1.3,1.5,2.1c0.5,0.8,0.7,1.7,1,2.7c0.2,1,0.4,2,0.4,3c0,1.2-0.2,2.3-0.4,3.4
		c-0.3,1.1-0.7,2.1-1.2,3s-1.2,1.6-2,2.2c-0.8,0.5-1.7,0.8-2.8,0.8c-1.6,0-3.1-0.4-4.4-1.1c-1.4-0.7-2.4-1.5-3.3-2.5
		s-1.6-2.1-2.1-3.2c-0.5-1.2-0.7-2.3-0.7-3.2c0-0.8,0.2-1.7,0.5-2.7c0.4-1,1-1.9,1.7-2.7c0.8-0.8,1.8-1.5,3-2.1
		c1.2-0.5,2.6-0.8,4.2-0.8c0.4,0,0.8,0,1.3,0.1C291.5,63,291.9,63,292.2,63.1z M288.6,68.8H288c-0.9,0-1.4,0.3-1.8,0.7
		s-0.5,0.9-0.5,1.3c0,0.5,0.2,1,0.6,1.6c0.5,0.6,1.1,0.9,1.9,0.9c0.4,0,0.8-0.3,1.1-0.7c0.3-0.5,0.4-1.1,0.4-1.6
		C289.7,70.1,289.3,69.3,288.6,68.8z"/>
</g>
<g>
	
		<linearGradient id="SVGID_1_" gradientUnits="userSpaceOnUse" x1="6" y1="823.6102" x2="70.6" y2="823.6102" gradientTransform="matrix(1 0 0 1 0 -770)">
		<stop  offset="0" style="stop-color:#FBAC0D"/>
		<stop  offset="1" style="stop-color:#FCCE2F"/>
	</linearGradient>
	<path class="st1" d="M62,85.7H14.6c-4.8,0-8.6-3.9-8.6-8.6v-47c0-4.7,3.9-8.6,8.6-8.6H62c4.7,0,8.6,3.9,8.6,8.6v47
		C70.6,81.8,66.8,85.7,62,85.7z"/>
	<g>
		<g>
			<path class="st2" d="M52.4,47.7c-3.1-3.5-5.8,0.4-7.6,4c-0.5-3.8-2.1-7.4-4.5-10.4c-3-3.7-7.7-7.1-12.5-4.9s-6.8,7.5-6.3,12.5
				c0.6,6,3.5,12,6.5,17.2c0,0.2,0,0.3,0.1,0.5c0.7,1.5,1.3,3.3,2.2,4.7c0.5,0.8,0.9,1.2,1.9,1.3c1.4,0.1,3.1-0.4,4.5-0.6
				c1.7-0.2,3.5-0.5,5.2-0.8c2.1-0.3,5.3-0.2,7-1.9c0.8-0.8,0.9-1.5,0.9-2.5s0-1.6,0.5-2.4c0.4-0.6,0.9-1.2,1.3-1.9
				C53.8,58.6,55.7,51.5,52.4,47.7z M46.6,68.3c-1.6,0.8-4.3,0.8-6,1c-2.1,0.3-4.2,0.6-6.4,0.9c-0.6,0.1-1.7,0.4-2.3,0
				c-0.3-0.2-0.5-1-0.6-1.3c-0.2-0.5-0.5-1.1-0.7-1.6c5.8,0.2,11.5-0.3,17.1-1.6C47.6,66.8,47.5,67.8,46.6,68.3z M48.5,63.5
				c-6,1.5-12.2,2.1-18.4,1.8c-0.1,0-0.1,0-0.2,0c0,0,0,0,0-0.1c-3.9-6.8-11.5-21-2-26.7c4.5-2.6,8.9,1.1,11.5,4.6
				c2.6,3.6,3.9,8.1,3.7,12.6c0,1,1.4,1.4,1.9,0.5c0.9-1.9,1.7-3.9,2.7-5.7c0.6-1,1.4-2.4,2.8-2c1,0.2,1.4,2.4,1.5,3.3
				C52.6,56.3,50.7,59.9,48.5,63.5z"/>
			<ellipse class="st3" cx="34.6" cy="48" rx="0.8" ry="0.8"/>
			<ellipse class="st3" cx="29.7" cy="49.7" rx="0.8" ry="0.8"/>
			<path class="st4" d="M33.2,53.5c-0.5,0-1.1-0.1-1.7-0.5c-0.2-0.1-0.3-0.3-0.2-0.5c0.1-0.2,0.3-0.3,0.5-0.2c0.7,0.4,1.4,0.5,2,0.2
				c1-0.4,1.4-1.4,1.4-1.4c0.1-0.2,0.3-0.3,0.5-0.2s0.3,0.3,0.2,0.5c0,0-0.6,1.4-1.9,1.9C33.8,53.4,33.5,53.5,33.2,53.5z"/>
		</g>
	</g>
</g>
</svg>
