<?xml version="1.0" encoding="utf-8"?>
<!-- Generator: Adobe Illustrator 25.2.1, SVG Export Plug-In . SVG Version: 6.00 Build 0)  -->
<svg version="1.1" id="Layer_1" xmlns="http://www.w3.org/2000/svg" xmlns:xlink="http://www.w3.org/1999/xlink" x="0px" y="0px"
	 viewBox="0 0 27 38" style="enable-background:new 0 0 27 38;" xml:space="preserve">
<style type="text/css">
	.st0{fill:#30AEE6;}
</style>
<g>
	<g>
		<path class="st0" d="M2.7,19.5c0.1,0.1,0.6-1.4,0.6-1.4C3.6,17,3.4,16,3.1,15c-0.1-0.5-0.3-1.1-0.6-1.6c-0.5-0.7-1.5-1.1-1.7,0
			c-0.1,0.5,0.2,0.9,0.3,1.3c0.3,0.9,0.6,1.8,0.5,2.7C1.5,18,1.1,18.5,1,19C0.9,20.2,2.1,20.3,2.7,19.5C2.7,19.5,2.5,19.8,2.7,19.5z
			"/>
	</g>
	<g>
		<path class="st0" d="M3.5,12.8c2.3-0.7,4.8-1.1,7.2-0.3c1.2,0.4,2.1,1.3,3.2,1.8c2.1,0.9,0.6-1.7-0.2-2.3
			c-2.4-1.9-5.8-2.1-8.7-1.5c-0.8,0.2-1.7,0.3-2.4,0.7c-0.5,0.2-1.8,1-1.3,1.7C1.6,13.4,3.1,12.9,3.5,12.8z"/>
		<path class="st0" d="M4.4,11.1c1.8-0.6,3.7-1,5.7-0.3c1,0.3,1.7,1.1,2.7,1.5c1.7,0.8,0.3-1.4-0.3-1.9c-2.1-1.6-4.8-1.8-7-1.2
			C4.8,9.3,4.1,9.4,3.5,9.7c-0.4,0.2-1.3,0.9-1,1.4C2.9,11.6,4.1,11.2,4.4,11.1z"/>
	</g>
	<g>
		<path class="st0" d="M2.9,13.4c1.8-0.2,4-0.4,5.5,1c0.5,0.5,1.6,2,2.1,0.7c0.3-0.8-0.4-1.7-1-2.2c-1.6-1.4-3.9-1.5-5.9-1.4
			c-0.6,0-1.3,0.1-1.8,0.4C0.6,12.8,1.8,13.6,2.9,13.4z"/>
	</g>
	<g>
		<path class="st0" d="M2.1,13.8c1.2,0.3,2.4,0.7,2.8,1.9c0.2,0.6,0.6,1.7,1.4,1.1c0.5-0.4,0.4-1,0.3-1.5c-0.3-1.7-2-2.5-3.5-3
			c-0.4-0.1-0.9-0.3-1.3-0.1C0.9,12.5,1.1,13.7,2.1,13.8z"/>
	</g>
</g>
<path class="st0" d="M25.4,17c-2.5-2.8-4.7,0.3-6.2,3.2c-0.4-3.1-1.7-6-3.7-8.4c-2.4-3-6.3-5.8-10.1-4S-0.1,14,0.3,18
	c0.5,4.9,2.8,9.7,5.3,14c0,0.2,0,0.2,0.1,0.4c0.6,1.2,1.1,2.7,1.8,3.8c0.4,0.6,0.7,1,1.5,1.1c1.1,0.1,2.5-0.3,3.7-0.5
	c1.4-0.2,2.8-0.4,4.2-0.6c1.7-0.2,4.3-0.2,5.7-1.5c0.6-0.6,0.7-1.2,0.7-2c0-0.8,0-1.3,0.4-1.9c0.3-0.5,0.7-1,1.1-1.5
	C26.5,25.9,28,20.1,25.4,17z M20.7,33.8c-1.3,0.6-3.5,0.6-4.9,0.8c-1.7,0.2-3.4,0.5-5.2,0.7c-0.5,0.1-1.4,0.3-1.9,0
	c-0.2-0.2-0.4-0.8-0.5-1.1c-0.2-0.4-0.4-0.9-0.6-1.3c4.7,0.2,9.3-0.2,13.9-1.3C21.5,32.6,21.4,33.4,20.7,33.8z M22.2,29.9
	c-4.9,1.2-9.9,1.7-14.9,1.5c-0.1,0-0.1,0-0.2,0c0,0,0,0,0-0.1C3.9,25.7-2.2,14.2,5.5,9.6c3.7-2.1,7.2,0.9,9.3,3.7
	c2.1,2.9,3.2,6.6,3,10.2c0,0.8,1.1,1.1,1.5,0.4c0.7-1.5,1.4-3.2,2.2-4.6c0.5-0.8,1.1-1.9,2.3-1.6c0.8,0.2,1.1,1.9,1.2,2.7
	C25.5,24,24,26.9,22.2,29.9z"/>
<ellipse class="st0" cx="13.8" cy="20" rx="0.9" ry="0.9"/>
<ellipse class="st0" cx="8.5" cy="21.8" rx="0.9" ry="0.9"/>
<path class="st0" d="M12.3,25.9c-0.5,0-1.2-0.1-1.8-0.5c-0.2-0.1-0.3-0.3-0.2-0.5c0.1-0.2,0.3-0.3,0.5-0.2c0.8,0.4,1.5,0.5,2.1,0.2
	c1.1-0.4,1.5-1.5,1.5-1.5c0.1-0.2,0.3-0.3,0.5-0.2c0.2,0.1,0.3,0.3,0.2,0.5c0,0-0.6,1.5-2,2C12.9,25.8,12.6,25.9,12.3,25.9z"/>
<path id="XMLID_85_" class="st0" d="M25.2,4c0-2.1-1.7-3.7-3.7-3.7c-2.1,0-3.7,1.7-3.7,3.7c0,1.9,1.4,3.4,3.2,3.7v2.7l-1.4-1.1
	c-0.2-0.2-0.6-0.1-0.8,0.1c-0.2,0.2-0.1,0.6,0.1,0.8l2.3,1.7c0,0,0,0,0,0c0,0,0,0,0.1,0c0,0,0,0,0,0c0,0,0.1,0,0.1,0c0,0,0,0,0,0
	c0,0,0,0,0.1,0c0,0,0.1,0,0.1,0c0,0,0,0,0,0c0.1,0,0.1,0,0.1,0c0,0,0,0,0,0c0,0,0,0,0.1,0c0,0,0,0,0,0l2.5-1.7
	c0.2-0.2,0.3-0.5,0.1-0.8c-0.2-0.2-0.5-0.3-0.8-0.1L22,10.4V7.7C23.8,7.4,25.2,5.9,25.2,4z M18.8,4c0-1.4,1.2-2.6,2.6-2.6
	c1.4,0,2.6,1.2,2.6,2.6c0,1.4-1.2,2.6-2.6,2.6C20,6.6,18.8,5.5,18.8,4z"/>
</svg>
