<?xml version="1.0" encoding="utf-8"?>
<!-- Generator: Adobe Illustrator 25.2.1, SVG Export Plug-In . SVG Version: 6.00 Build 0)  -->
<svg version="1.1" id="Layer_1" xmlns="http://www.w3.org/2000/svg" xmlns:xlink="http://www.w3.org/1999/xlink" x="0px" y="0px"
	 viewBox="0 0 100 113" style="enable-background:new 0 0 100 113;" xml:space="preserve">
<style type="text/css">
	.st0{fill:#A7A7A7;}
</style>
<g>
	<path class="st0" d="M93.5,37.1c-9.3-10.5-17.3,1.2-22.7,11.9C69.3,37.7,64.5,27,57.3,18C48.4,7,34.3-3.2,20,3.4
		S-0.3,25.8,1.2,40.7C3,58.6,11.6,76.5,20.6,92.1c0,0.6,0,0.9,0.3,1.5c2.1,4.5,3.9,9.9,6.6,14c1.5,2.4,2.7,3.6,5.7,3.9
		c4.2,0.3,9.3-1.2,13.4-1.8c5.1-0.6,10.5-1.5,15.5-2.4c6.3-0.9,15.8-0.6,20.9-5.7c2.4-2.4,2.7-4.5,2.7-7.5c0-3,0-4.8,1.5-7.2
		c1.2-1.8,2.7-3.6,3.9-5.7C97.6,69.7,103.3,48.5,93.5,37.1z M76.1,98.6c-4.8,2.4-12.8,2.4-17.9,3c-6.3,0.9-12.5,1.8-19.1,2.7
		c-1.8,0.3-5.1,1.2-6.9,0c-0.9-0.6-1.5-3-1.8-3.9c-0.6-1.5-1.5-3.3-2.1-4.8c17.3,0.6,34.3-0.9,51.1-4.8
		C79.1,94.2,78.8,97.2,76.1,98.6z M81.8,84.3c-17.9,4.5-36.4,6.3-55,5.4c-0.3,0-0.3,0-0.6,0c0,0,0,0,0-0.3
		c-11.6-20.3-34.3-62.7-6-79.7c13.4-7.8,26.6,3.3,34.3,13.7c7.8,10.8,11.6,24.2,11,37.6c0,3,4.2,4.2,5.7,1.5
		c2.7-5.7,5.1-11.6,8.1-17c1.8-3,4.2-7.2,8.4-6c3,0.6,4.2,7.2,4.5,9.9C94.1,62.8,88.4,73.6,81.8,84.3z"/>
	<g>
		<ellipse class="st0" cx="40.3" cy="38" rx="2.4" ry="2.4"/>
		<path class="st0" d="M40.3,40.7c-1.5,0-2.6-1.2-2.6-2.6c0-1.5,1.2-2.6,2.6-2.6c1.5,0,2.6,1.2,2.6,2.6
			C42.9,39.5,41.8,40.7,40.3,40.7z M40.3,35.9c-1.2,0-2.1,1-2.1,2.1s1,2.1,2.1,2.1c1.2,0,2.1-1,2.1-2.1S41.5,35.9,40.3,35.9z"/>
	</g>
	<g>
		<ellipse class="st0" cx="25.7" cy="43.1" rx="2.4" ry="2.4"/>
		<path class="st0" d="M25.7,45.7c-1.5,0-2.6-1.2-2.6-2.6s1.2-2.6,2.6-2.6c1.5,0,2.6,1.2,2.6,2.6S27.1,45.7,25.7,45.7z M25.7,41
			c-1.2,0-2.1,1-2.1,2.1s1,2.1,2.1,2.1s2.1-1,2.1-2.1S26.8,41,25.7,41z"/>
	</g>
	<path class="st0" d="M36.1,54.4c-1.5,0-3.3-0.3-5.1-1.5c-0.6-0.3-0.9-0.9-0.6-1.5c0.3-0.6,0.9-0.9,1.5-0.6c2.1,1.2,4.2,1.5,6,0.6
		c3-1.2,4.2-4.2,4.2-4.2c0.3-0.6,0.9-0.9,1.5-0.6c0.6,0.3,0.9,0.9,0.6,1.5c0,0-1.8,4.2-5.7,5.7C37.9,54.1,37,54.4,36.1,54.4z"/>
</g>
</svg>
