<?xml version="1.0" encoding="utf-8"?>
<!-- Generator: Adobe Illustrator 25.2.1, SVG Export Plug-In . SVG Version: 6.00 Build 0)  -->
<svg version="1.1" id="Layer_1" xmlns="http://www.w3.org/2000/svg" xmlns:xlink="http://www.w3.org/1999/xlink" x="0px" y="0px"
	 viewBox="0 0 195.6 233.9" style="enable-background:new 0 0 195.6 233.9;" xml:space="preserve">
<style type="text/css">
	.st0{fill:url(#SVGID_1_);}
	.st1{fill:#FCFCFD;}
	.st2{stroke:#000000;stroke-width:0.7;stroke-linecap:round;stroke-linejoin:round;stroke-miterlimit:10;}
	.st3{fill:#FF5400;}
</style>
<image style="overflow:visible;enable-background:new    ;" width="1304" height="1300" xlink:href="../../../../tm_publ/app/images/647F2325.png"  transform="matrix(0.1531 0 0 0.1531 5.5281 7.566)">
</image>
<g>
	
		<linearGradient id="SVGID_1_" gradientUnits="userSpaceOnUse" x1="14.9" y1="44.3865" x2="184" y2="44.3865" gradientTransform="matrix(1 0 0 -1 0 144.2365)">
		<stop  offset="0" style="stop-color:#FBAC0D"/>
		<stop  offset="1" style="stop-color:#FCCE2F"/>
	</linearGradient>
	<path class="st0" d="M161.6,183.7H37.3c-12.4,0-22.4-10.1-22.4-22.4V38.4C14.9,26,25,16,37.3,16h124.3C174,16,184,26.1,184,38.4
		v122.9C184,173.6,173.9,183.7,161.6,183.7z"/>
	<g>
		<g>
			<path class="st1" d="M136.2,84.4c-8.1-9.2-15.2,1.2-19.8,10.4c-1.4-9.9-5.4-19.3-11.7-27.3c-7.8-9.7-20-18.6-32.8-12.9
				c-12.6,5.6-17.7,19.6-16.5,32.6c1.5,15.8,9.2,31.4,17,44.9c-0.1,0.4,0,0.9,0.3,1.4c1.9,4,3.5,8.5,5.8,12.4c1.2,2,2.4,3.2,4.9,3.5
				c3.8,0.3,8.2-1.1,11.8-1.6c4.5-0.6,9.2-1.3,13.7-2c5.6-0.8,13.9-0.6,18.3-4.9c2-2,2.3-3.9,2.4-6.6c0.1-2.6-0.1-4.2,1.4-6.2
				c1.2-1.7,2.4-3.3,3.4-5C140.1,112.9,145.1,94.4,136.2,84.4z M121.2,138.3c-4.2,2.2-11.1,2-15.7,2.6c-5.6,0.8-11.1,1.6-16.6,2.4
				c-1.5,0.2-4.5,1-5.9-0.1c-0.7-0.6-1.3-2.7-1.7-3.5c-0.6-1.4-1.3-2.8-1.9-4.2c15.1,0.6,30.1-0.8,44.8-4.1
				C123.9,134.3,123.7,137.1,121.2,138.3z M126.1,125.7c-15.8,3.8-31.9,5.4-48.2,4.6c-0.2,0-0.4,0-0.5,0c0-0.1-0.1-0.1-0.1-0.2
				c-10.2-17.7-30-55-5.3-69.8c11.6-6.9,23.4,2.9,30,12.2c6.9,9.6,10.2,21.1,9.7,32.9c-0.1,2.5,3.8,3.6,4.9,1.3
				c2.4-4.9,4.4-10.1,7.1-14.8c1.5-2.6,3.8-6.2,7.4-5.3c2.6,0.6,3.8,6.4,4,8.5C136.9,106.9,131.9,116.3,126.1,125.7z"/>
			<circle class="st2" cx="89.8" cy="85.3" r="2"/>
			<circle class="st2" cx="76.9" cy="89.6" r="2"/>
			<path class="st3" d="M86.1,99.4c-1.4,0-2.9-0.4-4.5-1.2c-0.5-0.3-0.7-0.9-0.4-1.4s0.9-0.7,1.4-0.4c1.9,1,3.7,1.2,5.2,0.6
				c2.6-1,3.8-3.8,3.8-3.8c0.3-0.5,0.8-0.8,1.4-0.6c0.5,0.2,0.8,0.8,0.6,1.4c-0.1,0.1-1.5,3.7-5,5C87.8,99.3,86.9,99.4,86.1,99.4z"
				/>
		</g>
	</g>
</g>
</svg>
