<?xml version="1.0" encoding="utf-8"?>
<!-- Generator: Adobe Illustrator 25.2.1, SVG Export Plug-In . SVG Version: 6.00 Build 0)  -->
<svg version="1.1" id="Layer_1" xmlns="http://www.w3.org/2000/svg" xmlns:xlink="http://www.w3.org/1999/xlink" x="0px" y="0px"
	 viewBox="0 0 27 38" style="enable-background:new 0 0 27 38;" xml:space="preserve">
<style type="text/css">
	.st0{fill:#FF73CA;}
</style>
<path class="st0" d="M25.4,16.5c-2.5-2.8-4.7,0.3-6.2,3.2c-0.4-3.1-1.7-6-3.7-8.4c-2.4-3-6.3-5.8-10.1-4s-5.5,6.1-5.1,10.1
	c0.5,4.9,2.8,9.7,5.3,14c0,0.2,0,0.2,0.1,0.4c0.6,1.2,1.1,2.7,1.8,3.8c0.4,0.6,0.7,1,1.5,1.1c1.1,0.1,2.5-0.3,3.7-0.5
	c1.4-0.2,2.8-0.4,4.2-0.6c1.7-0.2,4.3-0.2,5.7-1.5c0.6-0.6,0.7-1.2,0.7-2c0-0.8,0-1.3,0.4-1.9c0.3-0.5,0.7-1,1.1-1.5
	C26.5,25.3,28,19.6,25.4,16.5z M20.6,33.2c-1.3,0.6-3.5,0.6-4.9,0.8c-1.7,0.2-3.4,0.5-5.2,0.7c-0.5,0.1-1.4,0.3-1.9,0
	c-0.2-0.2-0.4-0.8-0.5-1.1c-0.2-0.4-0.4-0.9-0.6-1.3c4.7,0.2,9.3-0.2,13.9-1.3C21.5,32,21.4,32.8,20.6,33.2z M22.2,29.3
	c-4.9,1.2-9.9,1.7-14.9,1.5c-0.1,0-0.1,0-0.2,0c0,0,0,0,0-0.1C3.9,25.2-2.2,13.6,5.5,9c3.7-2.1,7.2,0.9,9.3,3.7
	c2.1,2.9,3.2,6.6,3,10.2c0,0.8,1.1,1.1,1.5,0.4c0.7-1.5,1.4-3.2,2.2-4.6c0.5-0.8,1.1-1.9,2.3-1.6c0.8,0.2,1.1,1.9,1.2,2.7
	C25.5,23.5,24,26.4,22.2,29.3z"/>
<ellipse class="st0" cx="13.7" cy="19.5" rx="0.9" ry="0.9"/>
<ellipse class="st0" cx="8.5" cy="21.3" rx="0.9" ry="0.9"/>
<path class="st0" d="M12.2,25.4c-0.5,0-1.2-0.1-1.8-0.5c-0.2-0.1-0.3-0.3-0.2-0.5c0.1-0.2,0.3-0.3,0.5-0.2c0.8,0.4,1.5,0.5,2.1,0.2
	c1.1-0.4,1.5-1.5,1.5-1.5c0.1-0.2,0.3-0.3,0.5-0.2c0.2,0.1,0.3,0.3,0.2,0.5c0,0-0.6,1.5-2,2C12.9,25.2,12.6,25.4,12.2,25.4z"/>
<path class="st0" d="M3.6,24.8c0,0-2.1-3.8,1.3-11.1c0,0,2.4,4.1,11.4,0.5c0,0-2.4-7.5-9.6-5.9s-5.6,7.4-5.9,12"/>
<path id="XMLID_82_" class="st0" d="M25.2,4.6c0-2.1-1.7-3.7-3.7-3.7s-3.7,1.7-3.7,3.7c0,1.9,1.4,3.4,3.2,3.7v1.3h-1.8
	c-0.3,0-0.5,0.2-0.5,0.5c0,0.3,0.2,0.5,0.5,0.5h1.8V12c0,0.3,0.2,0.5,0.5,0.5c0.3,0,0.5-0.2,0.5-0.5v-1.3h1.8c0.3,0,0.5-0.2,0.5-0.5
	c0-0.3-0.2-0.5-0.5-0.5H22V8.3C23.8,8.1,25.2,6.5,25.2,4.6z M18.8,4.6C18.8,3.2,20,2,21.4,2c1.4,0,2.6,1.2,2.6,2.6
	c0,1.4-1.2,2.6-2.6,2.6C20,7.3,18.8,6.1,18.8,4.6z"/>
</svg>
